<mxfile host="Electron" agent="Mozilla/5.0 (Windows NT 10.0; Win64; x64) AppleWebKit/537.36 (KHTML, like Gecko) draw.io/24.7.8 Chrome/128.0.6613.36 Electron/32.0.1 Safari/537.36" version="24.7.8">
  <diagram name="Страница — 1" id="8_JbTNpWKSoyBxY7jRhs">
    <mxGraphModel dx="2013" dy="1186" grid="0" gridSize="10" guides="1" tooltips="1" connect="1" arrows="1" fold="1" page="0" pageScale="1" pageWidth="827" pageHeight="1169" math="0" shadow="0">
      <root>
        <mxCell id="0" />
        <mxCell id="1" parent="0" />
        <mxCell id="ymRdBgUccURgdEPoGnt--8" value="" style="edgeStyle=orthogonalEdgeStyle;rounded=0;orthogonalLoop=1;jettySize=auto;html=1;" parent="1" source="ymRdBgUccURgdEPoGnt--1" target="ymRdBgUccURgdEPoGnt--3" edge="1">
          <mxGeometry relative="1" as="geometry" />
        </mxCell>
        <mxCell id="ymRdBgUccURgdEPoGnt--1" value="это&amp;nbsp;С" style="ellipse;whiteSpace=wrap;html=1;aspect=fixed;" parent="1" vertex="1">
          <mxGeometry x="131" y="98" width="80" height="80" as="geometry" />
        </mxCell>
        <mxCell id="ymRdBgUccURgdEPoGnt--2" value="" style="shape=image;verticalLabelPosition=bottom;labelBackgroundColor=default;verticalAlign=top;aspect=fixed;imageAspect=0;image=data:image/png,iVBORw0KGgoAAAANSUhEUgAAAVgAAAD/CAYAAAC0As6iAAAAAXNSR0IArs4c6QAAAARnQU1BAACxjwv8YQUAAAAJcEhZcwAADsMAAA7DAcdvqGQAAEkpSURBVHhe7d0HXBTX+jfw37CANKnSFEORItgogoCKxq4xauyx52+iiS3mmuQmuabc5L0p1hgFY2yxk8QWTcSCEbERkbVQRKRIEV26CEjZZd7ZZZQFKbvLrmJ4vp/PSdizx9mZZ2eeOXN2dw7zkr0Ti1aGZQ0wYNk6zLYMx38/CkUGw/DP/DO1te1VlNri0nUWVn3YBzd/eBdbr4n5SqIJLGuIoGXfY47Jn/j4s0PIeYH35cb2P+fXV+Nj/3isXrIVCc1snxb//1aFYcoQdeE6KqwD0N/9n59s2tr2KkodcWFZLfTq5wuz4hhculbF1xJ1MuzcHd7e3vD2649X3liGid3FiDsT+UInV6km9z8FN61V9mAJURdWpzcWfr8Yjhf/hw/2JPG1RJ08Zq/D+wPNUC0uRVFOBmJPh+K306koe8ETbGNkPdgArge7uPkeLCVYQgjRkFY5REAIIf8ElGAJIURDKMESQoiGUIIlhBANoQRLCCEaQgmWEEI0hBIsIYRoCCVYQgjREEqwhBCiIZRgCSFEQyjBEkKIhqh0LwLHqSvw6XAb2d8sW4Xy4gJkJ13A76GHEVcgqyak1WC19GA13Bs9B1pBT+sBEr/7Cyl59W7S4eWHkdM6QlDv5h1sUSoufnUNhf/QG5cQzRKYmJp9wf+tMLPuQxFkm4KDm0Lx12Uhbt6vhkPgKAztUQ1hRCIe0s5IWgnGyg7d5waiW3dtlOQBeu0KcefoXZTWu9+cQS9XOFnkI35vLNKuZuLu4yK8j/zCKm5BtE8T5ak+RFCVj+SYGAiF0bgYthNrD8RCy94HXlb884Q8Z9IbJneZ3hudBNm4/sNpJN/jdveCEjxs4JqtvYURkJ+PrHgRchNyaktaGSVXojKVhwiW90nAiqXbcevxzufzNkIWdkLYR8txNKemTnrfxE+GWcr+lqquKkXRvUSc+207fo8r5mulBwJg4joCUyYNgrudOfTEBUiLOYZ9oWeQVVG7c7NsT7wVsgyBBnV3eLb0HNYu/Alx/LrI7tfoeQVffrgX6Vwdq+2OOd99hCCzDBzm14+1GoMvv52Azo0cPGziLiz89iTKpf9ewfVTFKtljT5TZuFVPydYGeuDqXyIgqx4nDmwGycSS/hWDd93ku2zCFvmW+OIXJxZVheOg6dh4iAv2FsaQlBehOxb53Fo32HEF8qacG2MMWr5ekx8tB3zVp+BhF+exejPsWJ8Mba8sQaXHr+Ggtur6Pop8n5IKRtno95vYfncPjDMO42N/92LBHHdNixrAruh+ig4cw9lYn04Lx0B16IrCPs5s07SZNl26LJkJJxzL+FkqIivJaTlVO/BMgLo6utDT88I5g5+mDnGG+Ib4Thfb/9kS67it/XfYwNXQrYdxI3qrhjzziz46NTmdcZ6BBYumwJ3yXWE7d6KPccToOv7Bj6Y1xfG0qPuCQG0uDXOPr9Vtjxp+SWGzyBNMB8wBgFGlajkH8sURmHvhnX8cg4i4RGLoph9T5YbfOAqKvimiq+fYjqNXoA3B1lBdDYUW4LXY/Oek8hs74fJi2bAS1v55en6zsWyGd7Qig9D6NZN+PnQWeR1HIWFb4+ElQrrp+7tra/B94Oj7OvqmJjBpJ0O9M0sYKjNV8phmAe4G34fjyTSZGoMww7AozzuxC6XXGu0h6EF99zDSgjaaXG7dsu3kRAplRMsYzIA7238CSEbQ7Dys7fhVXYU64Ijnv4woDIft2VDCUIIo05hx9FrqNC3hR23sz9mHzQQzuJo7F6zG6cuXsKFYz9j3f5YtPMcgkBux68lgEAAlN27UbM8riTlPU6DDWO1XPDKCDekX4/DI75OiqnKwS1+GTExySisBirybj1ZrjA5Dyy/LYqvn2LEqRHYt2kDthyKQLQwBtHnj2Izl0xg0Bkv1Xb4FSaO3YXlSz/E6n0nEX0jFje4OO86nQhd557oZsA3UoK6t1deY++HlLKvWxC+Css+/AAfvL8B0eX1k2Y9Ju1hpMeiJOchXyFH3wgGhlyTlwdi5P/GYtTXYzH034Fw764n7d7yjQhRnsoJli2Jwd6V32HVyhUI3nkMGVbjsOid/jB7aofU4nu6ejAwtkOArzOQHo2r9/inOdZWXLbNzUa2oKadtIiz76KIsYSlNd9IRgta3HFUXS3hHzfPJGgsAnX/xp+XitFAJ0chiq+fYnLizuCv6HRU6dYsz8iqK4b5OqIyS4gb9a9QGe0n8ZMWfR3uDFNPNbcefab/B2s2b8OPspPeT1g/y5PrqBnBqD3fiOuPV0qnpNLW5k5TTVNqexVYP3lNvR/KxplhqlGWl4PCcr6iKdZcLFCOUhF3Jq2v6j4SN57DhZBIWYnaE4ecags4TfeGnRHfhhAVqD5EIH6AzPg4JCTEQRixH+tDwlHhOR0TfeoeYIz5ILzPH/Qb1n2NOa55CD/0FzLk8rCA65YyDuPxNd9OVj4eCUtpj1X+KOQOZgG3xuIqBRKsNNEzjhg53B33Tv+O6/XG55Sh8PoppSPGfr5JtqwfvvsEo20ycGr/KaTV2zTGqB+WyL/uXJ86b5p0Ur/uU5diipcu4g5swBrZSY8rRxIgn0oYpgKpd0RgnfpiTC8bGOnXJLB22k/HRZntbW79nlDg/dBMnGvoWreHDvsQDxsYYmUk5XiQmo9CvuTfSMX18PtgtdujvdyVFiHKUj3B1iNOTkGmxAA2dnWv5djiK9jz+KBfuwEHk0wwbPH7GN2Rb8CRSCRgs04j+HE7vqxetQ5hqXwjKeP2MGQkeFRWxlc0oboaeoFjEdReiD9PynWXVaDw+iklF+e2rZAtZ836rQi/3xGjFn+IMXb80zy29BpC5V+3XuIEusCzhynKr+7HlrBoxCXEcyc9rtwre2riy9Qj2/DnHXMMW7oCP4TUJLD/N9aJf7aWMtvb/PrxFHg/NBPnGu0tua5ocSlK6/V2WVYHBvbmMDLmKx6Tnsm5Hm95Uc1DQlShtgTL2L8EW4EEhXn1PnQSFyFd1tPlDvobl3EiNBIZAns4u+nyDQBRTh5gwO3/XG9Y1o4r8VnFsg8bWLlPQrSc7Ll+nwjZGQ0ewnVJLDBgVC/knT4CYXPjc81QdP0UwbJG6OI/FAO6mSA3tWZZccKz+O3X88gRdIaTc21cZKqLkPU4ftLXza79lkGNclRy68Bo6zy59Jf2al26dH4qwTLliTj4zXv418ef4ZsVNclr09m7/LO1lNreZtePp8D7oWycpdtpYG4JUz2+ohHSdkaWXKP8Yjw1Aqttg26LguAV+GQsRZZ0O/XoACYnBzmUYEkLqJ5gdSzg7OMDb+/eCBgyGUsXj4BtYRQihfXmnte1gIusnTe8fYMwZuYgOLD3kXGn9ohJj4xAsmEQ5r47GYP9/dBn0Dgs+PBTLJ3tD1P+ktmwszcmjuoN/bw7eGDNL48rrh3acVthCicfd1jLfTMBll7wNLuOsBMZfIXqFFk/xVXA3Hs8Zi9YgOnD+8GH2wafgGGY9np/WEkykJKsZMZGFq7dEEHXczKWTB4Kf//+GDnjA0zyYCHmW8iTjluWiNJx+2ZNAkvOe3oAU73by1Pg/VD2dc0HL8OqVau4shA+enXH/lmBISw8O8GWKx29uqCDNZfjWX1uNey4OksYPN5XuA5A0X0Wxv5e8OhnBxtPe7jOCEJ3dwnunkxB6VPfOCBEcSonWMawFyYsXoqFixZhzrhAWIgisHn1z7hRr3fCGHlhEtduEVcWzJuGl23zcHbrevyexjfgsKLjCF6zHylGvhg9ex5mj++PDqJwbFy5G0nVNcuzHzQbI130oGXZFzP45UnLFB8zMPo9MHbRdPiZyZrKMO30UHD2CKJK+YoWUGT9FMUwVbi8Yy32x1ajx+hZmL/oXcyfPRZe7VJwLGQdjmbxDRXEMCyS9v+AHedzYRU0GXNmTUSARQL2H5cLsJLUub2PKfJ+KPu6VQ+LUFIpRvmDIjyqfzbp5Ihe033hM8OPK93R0YSBtrOb7LH3611gxudXhnmI5B1/IzVTG7bDvOA1wQO2JkVI/jkS1681/Q0VQpqj0g8NngeP2euwzOaPJ1/+l8d2noD//dcTf8t9aZ0QQp43tY3BEkIIqeuFSbCl95KQmJ6PBocAy3ORdisVucoOXxJCiAa9MEMEhBDyoqEhAkII0RBKsIQQoiGUYAkhREMowRJCiIZQgiWEEA2hBEsIIRpCCZYQQjSEEiwhhGgIJVhCCNEQSrCEEKIh6kuwhp3Qo3tn6LbhSeJYQwf08LCGHjQYA4ozxfkZeSZx/ocTmJiafcH/rRIWxug+7h0sWzAdg+0KcOZs0lO3E2wzrAZhyfJFeNW3EyTp8UgprHfz8RagOMuhOD8bGoxzW9Gim71Ipz/xmvsZFvTVQ/KJvQg9fhkZxU9P58KiH97d9hacL67Bki3X+dqnMd7zsWFRIPQensXqJVuR0MiOrejyNIHV64m3vl4Gr3s7sXxFeJ1pyllWG6bOgRg9fQoGdczHn6v/Hw7ebvktvtQVZ8epK/DpcBvZ3yxbhfLiAmQnXcDvoYcRVyCrroPirPr+rO8wEJMmD0dP+w4wEBch+9YFHNr3O+ILnz7cnmWcpdPnBC3bjjd6NHJs3dqDJd8cl83koKk4tyUtGiJo5zUNs/uZIvXACqz+5VKDO6MMWwkJ95RE3MjzPGd3N+iVlaGsvRu6vsRXNkTB5ambdOfsOnEG/I1S8Meu03UOeimGEeNBSiR2f7MKYaJOGPV/E+DIHT4tpc44s6XXcWD99wje8CP2nIgF6/4aFi0eg44NXQpTnPln6mkmLqxxAN5c9gZ8DdMQEboVu49cwaMur2LJe+NhL2gdcWazz2ILtx9seFIO4WY5i4riIjyex0FTcW5LVE6wLGuAwMF+MM49g1+OZUJS7yCoSwyxmNuBJI1fYrCsJTxcLfDw2t9IFFvD1cOEf6YhzS9PE7QcxmHGgA64e3wHwu41vqMxVWk4/NsFFFsHYYi3Dl+rGnXHGVX5SI6JgVAYjYthO7H2QCy07H3gZcU/XwfFuWFNx8XILwieBtzJYe0m/HEuChdP/4J1u/5GhV0Q+rnwjep4DnEuu4d42X4glJUb1Zawa1cK4aVoiOuf0NQY57amBT1YZzg76aAw7irSnpq/tD4xt/MA1U2doY16wtWuGneSTyE9i4GDa3doN/oBgwLLUzOWtcKoGSNhW3CG65HckZ7e+WcaVhUnxM1HBujias/XqErNca7n0cMS7l9pQavBRVOcG9Z0XKw7WHAJLBtZchMsV908hm3bfsOVfL6ijmcZ52rEHlyJtfsu4/H8vyyrC9/+PjAqvIzIq9yKNEB9cW5bVE+wOqYw1gcK83P5iqaIUcWdocWSxsdvtD3c4MhkISUhC0mpBdBxcYcr/9zTml+eupkPno1RXcpwce9vuC1u7gDksHkoLAKMTeVmYlSFmuMMRgBdfX3o6RnB3MEPM8d4Q3wjHOdF/PN1UJwb1nRctLgYg62uczHNVGTh2vnzuJXb0DY9uzhLz1dFd+IQl5pX20s36Y9+PfVwL+oMkho7uagrzm2M6gmWn4dfkcsahknAjndn45NfuR5JI1zdXdGuOAVJ3IGecjsFVUZu6NrIyVKR5akTa+iHaa91h1i4D79eeySr6/VmCLZ+9zrsG+1lV3IHDCDQkkapBdQcZ8ZkAN7b+BNCNoZg5Wdvw6vsKNYFRzw1zilFcW6YuuPyrONcn1X/vnDTSkdUZFOvr6Y4tzEt+pBLXVjWBl1dzCBOTUYK91h88zYyIB2HNa1p8BxJL596TZkGb0E8Du25hJJmLllbO7YkBntXfodVK1cgeOcxZFiNw6J3+sPsOX/f858W5xcFy9ohKLALqm9fQOR9vpKoTQsSLKu+zxNNesCtI5CZlgRWWwDt0tvgrmDg4NqjiXHYZ8UBPbuZoeRGJK5KTGBibCwr+trNJQCG65moI0pqjLOU+AEy4+OQkBAHYcR+rA8JR4XndEz0ed49k39YnF8QjOsA+NtWIu78ORQ3eVJTV5zbFtUTbHkZyrlY6xu05ytUp+PRFQ7cm+c0fhU2b/mZK19gmCUDHZeucOPbPG/t+yzA2nUbnpR5fQz5ZxpjxMWGC9OjMv6xitQY54aIk1OQKTGAjZ0FX/N8/RPiXM1y19KMVp3RTFavM7wHDoCHVetJUNKvw3kO8Id52VWcjyrlaxujpji3MaonWPYu7okAG/suLf45oVtXF+iUX8fer77AV3z5+kAsxIaujY7DPjsZCN+8EmvWrKhTDsbVjBE2ytQZ9qaA6P5dvkJFaoxzQxj7l2ArkKAwT+4j7+finxNnUV4+YGCLTnKfB+l0HYE5s8bD8/mPetXS80Vfb2M8uMJdNTQ39KyuOLcxKidYhsmE8JoI2t0GYahtU5cWTZOOAbm7mECcdAWRKSlIS02VlduR15DGWsO1mznfUnks64ipK3dg64rX4ajiQcMw5bifGIe42Lol80HDX2eRYlkGTsMGogubgqvRDfxESgnqivMTOhZw9vGBt3dvBAyZjKWLR8C2MAqRQtW/g0lxrqsk+gKuP3LGq+/Owyv9/BEweBIWz/RHu6yzuJDMN1KBOuIsr33fIPTUy8Wls7FgmxgeUGec25oWfciVGvYrYkod8erCOehpquJOadINrjYsUhOuoVL+TX5wDTezAHvXbqqPw+q+hE5cfq5IS0YaX6Vp0p8XWgfOw/zhNsiJ+A3hinzrpxlqiTOPMeyFCYuXYuGiRZgzLhAWoghsXv0zbpS3YLkU5zqYB+exZfUOXCnvgsGvz8XMsX1glHoU678/hPTq1hFnlrVAUKAHBHcvIjKVr2yAJuLclrToXgRSOo6j8O6Sieiqk4PY8F3YdCiu1dwcg3WZjtUfD0Nu6GJ8d7KYr9Uc1rgXJs+fjpfdLVB8ZRfWbjoDkUQ9saA416I4v/hxbita1IOVqko7hlXLv8T2sxkwsLGBLl/fGhh27ggz5CA16QFfo2GGtrDWSsGJHz/HF8Hq3RkpznIoznyNhmkwzm1Fi3uwrZn7rHV4PyARwe+EQNjYL1RIi1Gcnw2K84vnH51gCSHkeWrxEAEhhJCGUYIlhBANoQRLCCEaQgmWEEI0hBIsIYRoCCVYQgjREEqwhBCiIZRgCSFEQyjBEkKIhlCCJYQQDaEESwghGqLSvQhYVgcd/SdiymhfOFoaASU5SLtyFPv2R0GkyFTLz4C+w0BMmjwcPe07wEBchOxbF3Bo3++IL6RbLxBCng2BianZF/zfCtPvOQf/WRiEdrf/wrGwSCQUGKLHkHEIskjFuasiiJ/z/TNZ4wC8s/wt9JTcwOkjx/F3chls+ozCKB9txEYm4AFLdyIihGieSkME3fr6wzz3L2wOPoCIqChEHt6IkBNZMA8YiB6tYNp0I78geBqk4I+1m/DHuShcPP0L1u36GxV2QejnwjcihBANU2mIwMyhOzrhLuLSCrgl1PQGWf/F2DLPEr//+1P8kcuAtRqDL7+dgM6N9GbZxF1Y+O1J2d3ipTPCmHiMxusTguDW0Qy65YXIjDuFX385ibRS5XubTlNX4D99k7Bm0WbEP16/dnbw8nXAo1vncItbP0II0TSVhgjKi3IgKiyHjp4+dHW0oa2tDR07X4zyMkTS6b+QJE2KlYW4l34T1y5H4fLlbBj17AqdG6HYcuA09zgK0dduIaugTJagGdtX8P4nk9A57yLC/jiNq9kSOPUfh6FdinDxYhoqGknSjbHoMQL97XJwMewqcvl/y0iKcT8jA/lllFwJIc9GC75F4IqpX29CyMafaspcnzoLY6pycEsohJArMTHJKKwGKvJuyR7LSnLek5ks7fsHwanyMnav2Y1TF6Nw4dhOrD0QC93uAxCo+qSyhBDyXLUgwWbg1I8rsGrldzXlSAK4HKoSa0sLID8bWZV8Bac08y4eoAM62PAVhBDyglE5wUrnsRfdjkdCQk2Jzy7hn1GeQCAAqqtRZwZ82ciwAAJt2SNCCHnhqJRg7QPG4FV/Bwikn07xGC0BGC4rylUpTCLhUquWFpdO5chGD8QQi2WPlFLNcstjtOpMC8fqdYb3wAHwsFJhBQkhRAUqJVjTbiMwbtIAOPEZUZpUHe07gRHnQpRfU6cMUU4eYNERdnJzJBt27gQT5CE3m69QgiiPWwkDW3Qy4ys4Ol1HYM6s8fA05SsIIUTDVPoWQf5DY/gNeRk+DrqQaJnA0Xc8Jg9zQXlUKH6Jud/ADw2s4P1KX5hnnMXpuEK+rtaDfB10HzIMfm4GXO/TCLbdXsbUMf7Qv3kIOyPSlf4WQWU+A4egoQjoYQktiS46uARgwsSBsMk/hb0Hb9IPDQghz4RKCVaSn4i4LG3YewUgsK8/3G2BrIv7sCU0GkXVDSWvphMsW5KM2OQq2Hbnltc/EL3sjVF04xC27vxLpZ/eMhUZiL1ZDDM3XwT06wsf1w6oTA7Hji2HcbuMb0QIIRqm0g8NCCGENK8FX9MihBDSFEqwhBCiIZRgCSFEQyjBEkKIhlCCJYQQDaEESwghGkIJlhBCNIQSLCGEaAglWEII0RBKsIQQoiGUYAkhREMowRJCiIZQgiWEEA2hBEsIIRpCCZYQQjREpfvBOk5dgU+H10z3yrJVKC8uQHbSBfweehhxBbJqQloF6XRG7Vxc4D7MHh1s9aEjLkdx8h0kHEpCUVntzdwVbUeIMlSa0cCs+1AE2abg4KZQ/HVZiJv3q+EQOApDe1RDGJGIh0pO8UKIpuh49EK/uV2gezcDaZHpEBXqwsqvC+w7PUKGsAjV/L6qaDtClKH6EEFVPpJjYiAURuNi2E6sPRALLXsfeFnxzxPynLGsEZxGO0I78RqidsQjXZiFzOPRSIgVQ9vJEuZKtiNEWSoPESzvk4AVS7fj1uMzu8/bCFnYCWEfLcfRnJo659dX45NhlrK/paqrSlF0LxHnftuO3+OK+dqayzMT1xGYMmkQ3O3MoScuQFrMMewLPYOsitqeA8v2xFshyxBoULc3wZaew9qFPyGOXxfp637seQVffrgX6Vwdq+2OOd99hCCzDBzm14+1GoMvv52Azo30TNjEXVj47UmUS/+9guunKFbLGn2mzMKrfk6wMtYHU/kQBVnxOHNgN04klvCt+O0IiMfqxVuRwK8n22cRtsy3xhG5OLOsLhwHT8PEQV6wtzSEoLwI2bfO49C+w4jnp0BjWWOMWr4eEx9tx7zVZyDhl2cx+nOsGF+MLW+swaXHr6Hg9iq6foq8H1LKxtmo91tYPrcPDPNOY+N/9yKh3vxtrI457IfaQHL9Ju7erd3NraaMhq9rJi5+eQ2F0vVRsB0hylK9B8sIoKuvDz09I5g7+GHmGG+Ib4TjvIh/nseWXMVv67/HBq6EbDuIG9VdMeadWfDRqd2RGesRWLhsCtwl1xG2eyv2HE+Aru8b+GBeXxhLj7onBNDi1jj7/FbZ8qTll5inJ1Gsz3zAGAQYVaKSfyxTGIW9G9bxyzmIhEcsimL2PVlu8IGrqOCbKr5+iuk0egHeHGQF0dlQbAlej817TiKzvR8mL5oBL23ll6frOxfLZnhDKz4MoVs34edDZ5HXcRQWvj0SViqsn7q3t74G3w+Osq+rY2IGk3Y60DezgKE2XymHqSpAxrGEOkmT1bNBJ3dtVCRm4/Geo2g7QpSlcoJlTAbgvY0/IWRjCFZ+9ja8yo5iXXDE02f6ynzclg0lCCGMOoUdR6+hQt8Wdh345zn2QQPhLI7G7jW7ceriJVw49jPW7Y9FO88hCLTgG8kIIBAAZfdu1CyPK0l5j9Ngw1gtF7wywg3p1+PwiK+TYqpycItfRkxMMgqrgYq8W0+WK0zOA8tvi+LrpxhxagT2bdqALYciEC2MQfT5o9jMJRMYdMZLtR1+hYljd2H50g+xet9JRN+IxQ0uzrtOJ0LXuSe6GfCNlKDu7ZXX2PshpezrFoSvwrIPP8AH729AdHnzPUxWywCdp3mho5YIN0/lcDtBw/9G0XaENEflBMuWxGDvyu+wauUKBO88hgyrcVj0Tn+YPdXT0OJ7unowMLZDgK8zkB6Nq/f4pznWVly2zc1GtqCmnbSIs++iiLGEpTXfSEYLWty+Xl0t4R83zyRoLAJ1/8afl4rRQCdHIYqvn2Jy4s7gr+h0VOnWLM/IqiuG+TqiMkuIG/WuAMBoP4mftOjrcGeYeqq59egz/T9Ys3kbfpSd9H7C+lmeXF4wglF7vhHXH6+s4v6nrc2dppqm1PYqsH7ymno/lI0zw1SjLC8HheV8RROkSdNuRn/0dK7End0xuFvUeHJVpB0hilB9iED8AJnxcUhIiIMwYj/Wh4SjwnM6JvrUPcAY80F4nz/oN6z7GnNc8xB+6C9kyOVhAdctZRzG42u+nax8PBKW0h6r/FHIHcwCbo3FVQokWGmiZxwxcrg77p3+Hdfrjc8pQ+H1U0pHjP18k2xZP3z3CUbbZODU/lNIq7dpjFE/LJF/3bk+dd40ltVC96lLMcVLF3EHNmCN7KTHlSMJ4DrlTzBMBVLviMA69cWYXjYw0q9JYO20n46LMtvb3Po9ocD7oZk4cy+tbQynuQPg6VaF9F3nEJ9Uf3CihqLtCFGU6gm2HnFyCjIlBrCxq3stxxZfwZ7HB/3aDTiYZIJhi9/H6I58A45EIgGbdRrBj9vxZfWqdQhL5RtJGbeHISPBo7IyvqIJ1dXQCxyLoPZC/HlSrrusAoXXTym5OLdthWw5a9ZvRfj9jhi1+EOMseOf5rGl1xAq/7r1EifQBZ49TFF+dT+2hEUjLiGeO+lx5V4Z6qew1CPb8OcdcwxbugI/hNQksP831ol/tpYy29v8+vEUeD80EWdW3xyu84Pg0bkUt7ZEIv5mI8lVwXaEKENtCZaxfwm2AgkK8+p9JCAuQrqsp8sd9Dcu40RoJDIE9nB20+UbAKKcPMAAKOZ6w7J2XInPKgYjYMHK7edaTvZcv0+E7IwGD+G6JBYYMKoX8k4fgVCB8bmmKLp+ipB+JaiL/1AM6GaC3NSaZcUJz+K3X88jR9AZTs61cZGpLkLW4/hJXze79lsGNcpRya0Do63z5NJf2qt16dL5qQTLlCfi4Dfv4V8ff4ZvVtQkr01n7/LP1lJqe5tdP54C74eycZZup4G5JUz1+Ip62PaW6P5OX7iY5SI25ByS08T8M3Up2o4QZameYHUs4OzjA2/v3ggYMhlLF4+AbWEUIoXSgT45uhZwkbXzhrdvEMbMHAQH9j4y7tQeMemREUg2DMLcdydjsL8f+gwahwUffoqls/1hyl8yG3b2xsRRvaGfdwcPrPnlccW1QztuK0zh5OMOa7lvJsDSC55m1xF2IoOvUJ0i66e4Cph7j8fsBQswfXg/+HDb4BMwDNNe7w8rSQZSkpXM2MjCtRsi6HpOxpLJQ+Hv3x8jZ3yASR4sGkoT0nHLElE6bt+sSWDJeU8PYKp3e3kKvB/Kvq754GVYtWoVVxbCR6/u2D+rb4meCwLg0OERMs9kosLCGtbdbGpK1/bQ4T8rULQdIapQOcEyhr0wYfFSLFy0CHPGBcJCFIHNq3/GjXq9E8bIC5O4dou4smDeNLxsm4ezW9fj9zS+AYcVHUfwmv1IMfLF6NnzMHt8f3QQhWPjyt1Iqq5Znv2g2Rjpogcty76YwS9PWqb4mIHR74Gxi6bDz0zWVIZpp4eCs0cQVcpXtIAi66cohqnC5R1rsT+2Gj1Gz8L8Re9i/uyx8GqXgmMh63A0i2+oIIZhkbT/B+w4nwuroMmYM2siAiwSsP+4XICVpM7tfUyR90PZ1616WISSSjHKHxThUf2ziX0n2HbQAqPbHvav9YHvGwFPSu/RdtDhmyncjhAVqPRDg+fBY/Y6LLP548mX/+WxnSfgf//1xN9yX1onhJDnTW1jsIQQQup6YRJs6b0kJKbno8EhwPJcpN1KRa6yw5eEEKJBL8wQASGEvGhoiIAQQjSEEiwhhGgIJVhCCNEQSrCEEKIhlGAJIURDKMESQoiGUIIlhBANoQRLCCEaQgmWEEI0RH0J1rATenTvDN02fHs31tABPTysoQcNxoDiTHF+Rp5JnP/hBCamZl/wf6uEhTG6j3sHyxZMx2C7Apw5m/TU3a7aDKtBWLJ8EV717QRJejxSCuvdG7cFKM5yKM7Phgbj3Fa0KMFK787vNfdTLB5iibvh2xG8JwKihu48j354d9tXmG6ZhjBh/Vn9ajHe8xH8vyWYMMgcyWFC5DayYyu6PHVitczh8/q/8Z/33sCEsW54eOI87tSfV6r4NoTxeTDo9jJeHeED7VsXcLNA1TtU11JXnB2nrsCaZTMxdtxrGDN2NIa/3B9eToYoTElETv0pXjnPOs7SzqKpx2jMeftNTJ86Ga8O7o+edgyyk5JRWCUX61YeZyl9h4GYNm8+Zk6binHDg2Rxzk++hdwGJmhsa/tzW9KiIYJ2XtMwu58pUg+swOpfLiGjuJGpXNhKSLinJOKmp3pxdneDXlkZytq7oetLfGVDFFyeurDG7hj/4RdYMMgMd9Ny+NqnMYwYD1IisfubVQgTdcKo/5sAR+7waSl1xpktvY4D679H8IYfsedELFj317Bo8Rh0bOhS+BnHWct+HJb+awLcxLE4vmcb9oXfhDa37csWDYOF3Pq19jizxgF4c9kb8DVMQ0ToVuw+cgWPuryKJe+Nh73g+cf5ee/PbYnKCZZlDRA42A/GuWfwy7FMSJq8jBJDLOZ2IEnjlxgsawkPVws8vPY3EsXWcPUw4Z9pSPPLUyePcW9jlM09/Ln2U6y/lMfXNo6pSsPh3y6g2DoIQ7xbdk98dccZVflIjomBUBiNi2E7sfZALJfYfOBlxT9fx7ONs/vAl/HSw3PYsmonTl64hAvHtmPN7hiwboMRVG8ySKnWGmcjvyB4GqTgj7Wb8Me5KFw8/QvW7fobFXZB6OfCN6qj7ezPbU0LerDOcHbSQWHcVaQ9Nb1efWJu5wGqmzpDG/WEq1017iSfQnoWAwfX7tBu9AMGBZanRqW3j2Hd59/gUHyxwufvqjghbj4yQBdXe75GVWqOcz2PHpZw/0oLWg0u+tnFmWV1YG1lCmSl4pZcnim9lYJ76AArW76intYYZ+sOFkBZNrLk5v+sunkM27b9hiv5fEUdbWl/bltUT7A6pjDWBwrzc/mKpohRxZ2hxZLG74it7eEGRyYLKQlZSEotgI6LO1z5557W/PLUKePSCcQ94B8ois1DYRFgbCo3UZgq1BxnMALo6utDT88I5g5+mDnGG+Ib4Tjf4NDfs4yzAALptLjVElnvUXbgS0+wXOZhHz/XkFYYZy0uxmCr6yQvpiIL186fx63chpJ3G9qf2xjVEyw/TbQilzUMk4Ad787GJ7/e4Wue5uruinbFKUjiDvSU2ymoMnJD10ZOloos7/mr5A4YLm1oNZYZFKTmODMmA/Dexp8QsjEEKz97G15lR7EuOAKFDVwSP684s8YD8a+N2/DDggDUm8S8Aa0zzspoU/tzG9OiD7nUhWVt0NXFDOLUZKRwj8U3byMD0nFY7pKRqBVbEoO9K7/DqpUrELzzGDKsxmHRO/1h1uhwzHPw4Dy2fvVf/G/nZe6wJuTF1YIEyyo8ftMskx5w6whkpiWB1RZAu/Q2UvMAB9ceTYzDtnYM1zNRR5TUGGcp8QNkxschISEOwoj9WB8SjgrP6Zjo03p6JtJPr4uz0yEqVWRMspXG+R9HXXFuW1RPsOVlKOdirW/Qnq9QnY5HVzhwb57T+FXYvOVnrnyBYZYMdFy6wo1v8+Ix4mLDhelRGf9YRWqMc0PEySnIlBjAxs6Cr3leJLIPesBdggrkT6oCAXdos6huNNe2vjhXs9yGMFp1Pipj9TrDe+AAeFi9qAlKTXFuY1RPsOxd3BMBNvZdWvxzQreuLtApv469X32Br/jy9YFYiA1dGx2HbfVMnWFvCoju3+UrVKTGODeEsX8JtgIJCvPkPvJ+DhimCqKcIsDOCW5y3wQydOsCW+Qht7HPnlphnEV5+YCBLTrJfR6k03UE5swaD88XddRLXXFuY1ROsAyTCeE1EbS7DcJQW/lztXJY1g7uLiYQJ11BZEoK0lJTZeV25DWksdZw7WbOt1Qeyzpi6sod2LridTi24KAxcvCGX58+suLdWdrDaY+XevvLHvd2fnr9WJaB07CB6MKm4Gp0AV+rGnXF+QkdCzj7+MDbuzcChkzG0sUjYFsYhUih6t/BVFecb0acQWb7/njz/ZkYFhiAvqPm4L0ZPtBKOYsLaXwjOa01ziXRF3D9kTNefXceXunnj4DBk7B4pj/aZXHbkcw3UsE/YX9ua1r0U9nCjELY9RuOoF6myLh6HaIGfgbYLJMAvDaxOwoitiMyVe4jjfKH6OAzDL0NMnE8Kh3VDXzK3SzdXhgxyQvGCcexJ5o786qyDI7z2I+wZGIQevf2g5e9CbcYEzh4+8kee+qn4A/psnksqw3rwLeweFJXlERsxtZLuaqtuxy1xJlj1n0oBrg7w6OPP3z9fNGziyXXcbuI0J/2IKawBd/BVFOc2aJEXEuRoGM3P/j36wtvZ2M8iD2G7Vv/RHpl3WW25jgzFRmIvVkMMzdfBHDb4ePaAZXJ4dix5TBut+QK+x+yP7clzEv2Ti26HtJxHIV3l0xEV50cxIbvwqZDca3m5hisy3Ss/ngYckMX47uTxXyt5rDGvTB5/nS87G6B4iu7sHbTGYgk6okFxbkWxfnFj3Nb0eKvaVWlHcOq5V9i+9kMGNjYKPC9xWfHsHNHmCEHqUnKfqtaRYa2sNZKwYkfP8cXwerdGSnOcijOfI2GaTDObUWLe7CtmfusdXg/IBHB74RAWOczXaJOFOdng+L84vlHJ1hCCHmeWjxEQAghpGGUYAkhREMowRJCiIZQgiWEEA2hBEsIIRpCCZYQQjSEEiwhhGgIJVhCCNEQSrCEEKIhlGAJIURDKMESQoiGUIIlhBANUelmLyyrg47+EzFltC8cLY2AkhykXTmKffujIBK33bv8OE5dgU+H28j+ZtkqlBcXIDvpAn4PPYw4uhE8IW2OSjMa6Pecg/8sDEK723/hWFgkEgoM0WPIOARZpOLcVRHEbfSO59IZA4JsU3BwUyj+uizEzfvVcAgchaE9qiGMSMRDuhM8IW2KSkME3fr6wzz3L2wOPoCIqChEHt6IkBNZMA8YiB6tZ/bn56MqH8kxMRAKo3ExbCfWHoiFlr0PvKz45wkhbYZKQwRmDt3RCXcRl8Zd9/K9MtZ/MbbMs8Tv//4Uf+QyYK3G4MtvJ6BzI702NnEXFn57UjYdh3T+NhOP0Xh9QhDcOppBt7wQmXGn8OsvJ5FWqnyvz/n11fg4IB6rF29FwuP167MIW+Zb48hHy3E0h6+Tvq7rCEyZNAjudubQExcgLeYY9oWeQVaF8q8rHSJY3icBK5Zux63H2+3zNkIWdkKY3OsSQtoGlXqwhXfiEJtWCG09fejp6cmKvrZ0UUztPGyFUdi7YR02rP+eKweR8IhFUcw+/vH3CD5wFRV8U8b2FSx+byLcqq4jbPdW7AuPg7bXDPxr/sswacHsmc1hrEdg4bIpcJfUvO6e4wnQ9X0DH8zrC2NVX5cRQFdfGhcjmDv4YeYYb4hvhOO8iH+eENJmtOBbBK6Y+vUmhGz8qabM9amzMKYqB7eEQu5SWYiYmGRIJy2tyLsleywryXlg+Wxs3z8ITpWXsXvNbpy6GIULx2ourXW7D0Cg6rN2N8s+aCCcxdH8617iXvdnrNsfi3aeQxBowTdSEmMyAO/JYhKClZ+9Da+yo1gXHIHCJ2ceQkhb0YIEm4FTP67AqpXf1ZQjCVB14mdrSy6b5WcjS27W7tLMu3iADuhQ86G88hhtvifJ97B1nh4ctrbqAORmI1tQ206cfRdFjCUsrflGSmJLYrBXFpMVCN55DBlW47Donf4w02BPnBDSOqmcYBmmHKLb8UhIqCnx2SX8M8oTCLjkV10NCf9YRpaPBBBoyx4pjTHqhyWPe9cN9LClpK/LOIzH1/LtPh4Jyxa8LsQPkBkfx8UkDsKI/VgfEo4Kz+mY6NPWP/0jpO1RKcHaB4zBq/4OEMj1yhgtLllxWVGVjppEwqVWLS0urcmRXVGLIRbLHimNLb2G0Me960Z62NLXZbNOI1i+HVdWr1qHsFS+UQuJk1OQKTGAjZ2KYw6EkBeWSgnWtNsIjJs0AE58RpQmVUf7TmDEuRDl19QpQ5STB1h0hJ3cJPSGnTvBBHnSK3jVVBchS9aTbLyHLXtdA6CY620+aZdVDEbAnSjkhitagrF/CbYCCQrzCvkaQkhboVKCjT97DiLTIMxdPAkvBwRg0PglmDfIGvlRkYitc52vmPRzZ5Gi44tp703DkEB/9B0xE0vHd0fF9QhcKuIbaUB6ZASSDbnteHcyBvv7oc+gcVjw4adYOtsfpipsh4yOBZx9fODt3RsBQyZj6eIRsC2MQqSwim9ACGkrVPollyQ/EXFZ2rD3CkBgX3+42wJZF/dhS2g0iqob+rTcCt6v9IV5xlmcjnu6J8eWJCM2uQq23bnl9Q9EL3tjFN04hK07/1Lpp7fmPYajf+dcXAq7itzHn97b+WFMbyPcCv8LSfx3a6Wve+N2FTp69UXfoH7w6WqN6vRz2Ls5FHEqDClLf8k1wN0ZHn384evni55dLMHevYjQn/YgRvo1CkJIm6LSDw0IIYQ0T+VvERBCCGkaJVhCCNEQSrCEEKIhlGAJIURDKMESQoiGUIIlhBANoQRLCCEaQgmWEEI0hBIsIYRoCCVYQppx+Pc/ZIUQZVGCJYQQDaEESwghGkIJlhBCNIQSLCGEaIhKtyt0nLoCnw6vmY2QZatQXlyA7KQL+D30MOIKZNWEtApGIwdj4GBj/lEt9lE6opfHIIe/XzDLMtB3c4bbEHt0sNWHjqQCxSl3kHjwFrbt/VPWZtzY0bL/E6IolW64Lb2xdJBtCg5uCsVfl4W4eb8aDoGjMLRHNYQRiXhIU1STVoItLUF+YibuXq0p9+9rw6yLASqvJiIpvgTV/L6q6+GJfv/XBfr3M5Fy9g7u52rBwtcZjvaV6O0yStYmNHSv7P+EKEr1IYKqfCTHxEAojMbFsJ1YeyAWWvY+8LLinyekFai6l4vchBxZKSw3h+NAK1T+fRkXfruHqie9VwPYj3SAdtJ1XNgWh/SYLNwNj0Hs5TIIHDvI2hCiCpWHCJb3ScCKpdtx63Fv1edthCzshLCPluNoTk2d8+ur8ckwS9nfUtVVpSi6l4hzv23H73HFfK10BwdMXEdgyqRBcLczh564AGkxx7Av9AyyKmp7wyzbE2+FLEOgQW2dFFt6DmsX/oQ4fl2kr/ux5xV8+eFepHN1rLY75nz3EYLMMnCYXz/Wagy+/HYCOj9e/3rYxF1Y+O1JlEv/vYLrpyhWyxp9pszCq35OsDLWB1P5EAVZ8ThzYDdOJNbOVSPbjoB4rF68FQn8erJ9FmHLfGsckYszy+rCcfA0TBzkBXtLQwjKi5B96zwO7TuMeH6GHpY1xqjl6zHx0XbMW30GEn55FqM/x4rxxdjyxhpcevwaCm6vouunyPshpWycjXq/heVz+8Aw7zQ2/ncvEpqYXkjXvQf6zLCH5GIULv+RCzG/vlKscRf0/dQDj/b8gavXag8Hw+GDMLBvId7q9ZXsMQ0REGWp3oNlBNDV14eenhHMHfwwc4w3xDfCcV7EP89jS67it/XfYwNXQrYdxI3qrhjzziz46NTuyIz1CCxcNgXukusI270Ve44nQNf3DXwwry+MpUfdEwLp7N7IPr9Vtjxp+SWm+dlazQeMQYBRJepMFFsYhb0b1vHLOYiERyyKYvY9WW7wgauo4Jsqvn6K6TR6Ad4cZAXR2VBsCV6PzXtOIrO9HyYvmgEvbeWXp+s7F8tmeEMrPgyhWzfh50NnkddxFBa+PRJWKqyfure3vgbfD46yr6tjYgaTdjrQN7OAoTZf2QDWygW+s7ugfVk+ckXV0KqfhzsZwwilKM6qliV57l/Iqo0sDIE8FSZnI4SncoJlTAbgvY0/IWRjCFZ+9ja8yo5iXXAECuV6BjKV+bgtG0oQQhh1CjuOXkOFvi3s5K687IMGwlkcjd1rduPUxUu4cOxnrNsfi3aeQxBowTeSEUAgAMru3ahZHleS8h6nwYaxWi54ZYQb0q/H4RFfJ8VU5eAWv4yYmGRI5ySsyLv1ZLnC5Dyw/LYovn6KEadGYN+mDdhyKALRwhhEnz+KzVwygUFnvFTb4VeYOHYXli/9EKv3nUT0jVjc4OK863QidJ17opsB30gJ6t5eeY29H1LKvm5B+Cos+/ADfPD+BkSXN957BZcnHyWJkF9mAucp/dBvaidoyyXsdtbtoVP1ECV57eG85FWM/KgHTFgDGFkKUJVTe6VFiLJUTrBsSQz2rvwOq1auQPDOY8iwGodF7/SH2VM9DS2+p6sHA2M7BPg6A+nRuHqPf5pjbcVl29xsZAtq2kmLOPsuihhLWFrzjWS0ZL2P6mrF59Q2CRqLQN2/8eelYjTRyWmS4uunmJy4M/grOh1VujXLM7LqimG+jqjMEuJGvSsAMNpP4ict+jrcGaaeam49+kz/D9Zs3oYfZSe9n7B+licYxghG7flGXH+8UjpzuLY2d5pqmlLbq8D6yWvq/VA2zgxTjbI86dgqX9EIJu02hNsuIWrNSVz+uwL6Xk7oyCXdx9pbckHKf4iHbAnS951FZHA8itAeRtzqlOY95FsRojzVhwjED5AZH4eEhDgII/ZjfUg4KjynY6JP3QOMMR+E9/mDfsO6rzHHNQ/hh/5ChlweFnDdUsZhPL7m28nKxyNhKe2xyh+F3MEs4NZYXKVAgpUmesYRI4e7497p33Fdhem/H1N4/ZTSEWM/3yRb1g/ffYLRNhk4tf8U0uptGmPUD0vkX3euT503jWW10H3qUkzx0kXcgQ1YIzvpceVIAuQnCmeYCqTeEYF16osxvWxgpF+TwNppPx0XZba3ufV7QoH3QzNxriVNyAXpRdxeX7s86fh1e0sdVOc+RBlYiPOKUfqQW1czYxjqSVAqKq1pSIgKVE+w9YiTU5ApMYCNXd1rObb4CvY8PujXbsDBJBMMW/w+RnfkG3AkEgnYrNMIftyOL6tXrUNYKt9Iyrg9DBkJHpWV8RVNqK6GXuBYBLUX4s+Tct1lFSi8fkrJxbltK2TLWbN+K8Lvd8SoxR9ijB3/NI8tvYZQ+detlziBLvDsYYryq/uxJSwacQnx3EmPK/fKUD+FpR7Zhj/vmGPY0hX4IaQmgf2/sU78s7WU2d7m14+nwPuhzjizOu1h3dcBVtZ1o6BvZgBUlaHsyZU/11PldtlHBSXSDMzXcX92MuaeKcXDu3wFISpQW4Jl7F+CrUCCwrx6HzqJi5Au6+lyB/2NyzgRGokMgT2c3XT5BoAoJw/g9vtirjcsa8eV+KxiMAIWrNwnIVpO9ly/T4TsjAYP4bokFhgwqhfyTh+BsKnxOQUoun6KYFkjdPEfigHdTJCbWrOsOOFZ/PbreeQIOsPJuTYuMtVFyHocP+nrZtf/0KUcldw6MNo6Ty79pb1aly6dn0qwTHkiDn7zHv718Wf4ZkVN8tp09ukMotT2Nrt+PAXeD2XjLN1OA3NLmOrxFfKMbOA8zhNd3GvjyWq1h113Y1Qni5D35AqK681yTbT1uP/ww1ssq4OOva2hnSuCKF9WRYhKVE+wOhZw9vGBt3dvBAyZjKWLR8C2MAqRQulAnxxdC7jI2nnD2zcIY2YOggN7Hxl3ao+Y9MgIJBsGYe67kzHY3w99Bo3Dgg8/xdLZ/jDlL5kNO3tj4qje0M+7gwfW/PK44tqhHbcVpnDycYe13DcTYOkFT7PrCDuRwVeoTpH1U1wFzL3HY/aCBZg+vB98uG3wCRiGaa/3h5UkAynJSmZsZOHaDRF0PSdjyeSh8Pfvj5EzPsAkD+5yl28hT3qZXCJKx+2bNQksOe/pAUz1bi9PgfdD2dc1H7wMq1at4spC+OjJvfdShfko4s715gN84R7YCTbejuj2Vl90sXiA2ycyn3xNDShCXpoE7Xw84T3CAR29HeA2ewB6dmNx9/htlNT/0JYQJaicYBnDXpiweCkWLlqEOeMCYSGKwObVP+NGvd4JY+SFSVy7RVxZMG8aXrbNw9mt6/F7Gt+Aw4qOI3jNfqQY+WL07HmYPb4/OojCsXHlbiRV1yzPftBsjHTRg5ZlX8zglyctU3zMwOj3wNhF0+FnJmsqw7TTQ8HZI4hSwxCaIuunKIapwuUda7E/tho9Rs/C/EXvYv7ssfBql4JjIetwNItvqCCGYZG0/wfsOJ8Lq6DJmDNrIgIsErD/uFyAlaTO7X1MkfdD2deteliEkkoxyh8U4VG9swmDAiRsjcEdkR46jvSB5xhXmFdnI/bHC0i+W5uMGaYSWaHncTOuEiYBPdHrNXd0NH6A5B1ncf16099QIaQ5Kv3Q4HnwmL0Oy2z+ePLlf3ls5wn433898bfcl9YJUZfHN9umHxoQZaltDJYQQkhdL0yCLb2XhMT0fDQ4BFiei7RbqchVdviSEEI06IUZIiDkeaEhAqIqGiIghBANoR4sIYRoCPVgCSFEQyjBEkKIhlCCJYQQDaEESwghGkIJlhBCNIQSLCGEaAglWEII0RBKsIQQoiHqS7CGndCje2foPjUnV9vBGjqgh4c19PhZSTWC4kxxfkaeSZz/4QQmpmZf8H+rhIUxuo97B8sWTMdguwKcOZv01O0E2wyrQViyfBFe9e0ESXo8Ugrr3Xy8BSjOcijOz4YG49xWtCjBSqc/8Zr7KRYPscTd8O0I3hMBUUNTe6Af3t32FaZbpiFMWH/a1FqM93wE/28JJgwyR3KYELmN7NiKLk+dWC1z+Lz+b/znvTcwYawbHp44jzv1J+4rvg1hfB4Mur2MV0f4QPvWBdwsUHUKgFrqirPj1BVYs2wmxo57DWPGjsbwl/vDy8kQhSmJyKk/hzbnWcdZ2lk09RiNOW+/ielTJ+PVwf3R045BdlIyCqvkYt3K4yyl7zAQ0+bNx8xpUzFueJAszvnJt5DbwAy4bS3ObUmLhgjaeU3D7H6mSD2wAqt/uYSM4kbmymIrIeGekoibnkvL2d0NemVlKGvvhq4v8ZUNUXB56sIau2P8h19gwSAz3E3L4WufxjBiPEiJxO5vViFM1Amj/m8CHLnDp6XUGWe29DoOrP8ewRt+xJ4TsWDdX8OixWPQsaFL4WccZy37cVj6rwlwE8fi+J5t2Bd+E9rcti9bNAwWcuvX2uPMGgfgzWVvwNcwDRGhW7H7yBU86vIqlrw3HvYCinNbonKCZVkDBA72g3HuGfxyTH6Oo4aIIRZzO5Ck8UsMlrWEh6sFHl77G4lia7h6mPDPNKT55amTx7i3McrmHv5c+ynWX8rjaxvHVKXh8G8XUGwdhCHeOnytatQdZ1TlIzkmBkJhNC6G7cTaA7HcAecDLyv++TqebZzdB76Mlx6ew5ZVO3HywiVcOLYda3bHgHUbjKB6s+1KtdY4G/kFwdMgBX+s3YQ/zkXh4ulfsG7X36iwC0I/F75RHW0nzm1NC3qwznB20kFh3FWkPTV/aX1ibucBqps6Qxv1hKtdNe4kn0J6FgMH1+7QbqhXJaPA8tSo9PYxrPv8GxyKL1b4/F0VJ8TNRwbo4mrP16hKzXGu59HDEu5faUGrwUU/uzhLZ3K1tjIFslJxSy7PlN5KwT10gJUtX1FPa4yzdQcLoCwbWXITLFfdPIZt237DlQZnqW1LcW5bVE+wOqYw1pdO3pnLVzRFjCruDC2WND7lgLaHGxyZLKQkZCEptQA6Lu5w5Z97WvPLU6eMSycQ94B/oCg2D4VFgLGp3EyMqlBznMEIoKuvDz09I5g7+GHmGG+Ib4TjfINDf88yzgIIpPOOV0tkvUfZiUx6guUyD/v4uYa0wjhrcTEGW13nZMxUZOHa+fO4ldtQ8m5DcW5jVE+w/Dz8ilzWMEwCdrw7G5/8eoeveZqruyvaFacgiTvQU26noMrIDV0bOVkqsrznr5I7YLjdWauxPVZBao4zYzIA7238CSEbQ7Dys7fhVXYU64IjUNjAJfHzijNrPBD/2rgNPywIgC5f17jWGWdltKk4tzEt+pBLXVjWBl1dzCBOTUYK91h88zYyIB2H5S5liFqxJTHYu/I7rFq5AsE7jyHDahwWvdMfZo0OxzwHD85j61f/xf92XuYOa6IxFGeNa0GCZetcArWISQ+4dQQy05LAagugXXobqXmAg2uPJsZhWzuG65moI0pqjLOU+AEy4+OQkBAHYcR+rA8JR4XndEz0aT09E+mn18XZ6RCVKjIm2Urj/AJ4PnFuW1RPsOVlKOdirW/Qnq9QnY5HVzhwb57T+FXYvOVnrnyBYZYMdFy6wo1v8+Ix4mLDhelRGf9YRWqMc0PEySnIlBjAxs6Cr3leJNJhQG6PFEAgf1IVCLhDm0V1ozmg9cW5muU2hNGq81EZq9cZ3gMHwMPqeSeo5xznNkb1BMvexT0RYGPfpcU/J3Tr6gKd8uvY+9UX+IovXx+IhdjQtdFx2FbP1Bn2poDo/l2+QkVqjHNDGPuXYCuQoDBP7iPv54BhqiDKKQLsnOAm900gQ7cusEUechv77KkVxlmUlw8Y2KKT3OdBOl1HYM6s8fB8zqNezz3ObYzKCZZhMiG8JoJ2t0EYait/rlYOy9rB3cUE4qQriExJQVpqqqzcjryGNNYart3M+ZbKY1lHTF25A1tXvA7HFhw0Rg7e8OvTR1a8O0t7OO3xUm9/2ePezk+vH8sycBo2EF3YFFyNLuBrVaOuOD+hYwFnHx94e/dGwJDJWLp4BGwLoxApbP7DncaoK843I84gs31/vPn+TAwLDEDfUXPw3gwfaKWcxYU0vpGc1hrnkugLuP7IGa++Ow+v9PNHwOBJWDzTH+2yuO1I5hup4J8Q57amRT+VLcwohF2/4QjqZYqMq9chauBngM0yCcBrE7ujIGI7IlPlhtrLH6KDzzD0NsjE8ah0VDfwKXezdHthxCQvGCccx55o7syryjI4zmM/wpKJQejd2w9e9ibcYkzg4O0ne+ypn4I/pMvmsaw2rAPfwuJJXVESsRlbL+Wqtu5y1BJnjln3oRjg7gyPPv7w9fNFzy6WXMftIkJ/2oOYwhZ8B1NNcWaLEnEtRYKO3fzg368vvJ2N8SD2GLZv/RPplXWX2ZrjzFRkIPZmMczcfBHAbYePawdUJodjx5bDuN2SK+x/SJzbkhZP263jOArvLpmIrjo5iA3fhU2H4lrNzTFYl+lY/fEw5IYuxncni/lazWGNe2Hy/Ol42d0CxVd2Ye2mMxBJ1BMLinMtivOLH+e2osVf06pKO4ZVy7/E9rMZMLCxUeD7dM+OYeeOMEMOUpOU/ZWAigxtYa2VghM/fo4vgtW7M1Kc5VCc+RoN02Cc24oW92BbM/dZ6/B+QCKC3wmBsM5nukSdKM7PBsX5xfOPTrCEEPI8tXiIgBBCSMMowRJCiIZQgiWEEA2hBEsIIRpCCZYQQjSEEiwhhGgIJVhCCNEQSrCEEKIhlGAJIURDKMESQoiGUIIlhBANUeleBNK51Tv6T8SU0b5wtDQCSnKQduUo9u2Pgkjcem5CwXjPx4ZFgdB7eBarl2xFAt3HkhDyDKnUg9XvORP/mjcIHe6fx6Gft+HA+bvoMPAdvD+zJ/Q0MK2Jqpzd3aBXVoay9m7o+hJfSQghz4hKCbZbX3+Y5/6FzcEHEBEVhcjDGxFyIgvmAQPRo5VMTsqylvBwtcDDa38jUSydAtyEf4YQQp4NlYYIzBy6oxPuIi6tgFtCzWU3678YW+ZZ4vd/f4o/chmwVmPw5bcT0LmRy3I2cRcWfntSdrd4aafXxGM0Xp8QBLeOZtAtL0Rm3Cn8+stJpJWqdlnPGg7Ghz/MQNWu5UgO+hqjCzdh0Q8XIKZhAkLIM6LSnFzlRTkQFZZDR08fujra0NbWho6dL0Z5GSLp9F9IkibFykLcS7+Ja5ejcPlyNox6doXOjVBsOXCaexyF6Gu3kFVQJkvQjO0reP+TSeicdxFhf5zG1WwJnPqPw9AuRbh4MQ0VKiRFbc+RmObL4vK+w0gyH4CgniySwoTIpQRLCHlGWvAtAldM/XoTQjb+VFPm+tRZGFOVg1tCIYRciYlJhnROvYq8W7LHspKcB5ZPdvb9g+BUeRm71+zGqYtRuHBsJ9YeiIVu9wEIVHFSWVd3V7QrTkGSCEi5nYIqI7cXdwpwQsgLqQUJNgOnflyBVSu/qylHEqDqvKTWlhZAfjay5CaVLc28iwfogA42fIUSWNYGXV3MIE5NRgr3WHzzNre20nHY5zwpPSGkTVE5wTJMOUS345GQUFPis0v4Z5QnEAiA6mpI+McyspFhAQTaskfKMekBt45AZloSWG0BtEtvIzUPcHDtAe1W9C0HQsg/m0oJ1j5gDF71d4BALlkxWgIwXFZUJX9JJFxq1dLi0qkc2eiBGGKx7JFSdDy6woH7907jV2Hzlp+58gWGWTLQcekKN74NIYRomkoJ1rTbCIybNABOfEaUJlVH+05gxLkQ5dfUKUOUw3UvLTrCTm6OZMPOnWCCPORm8xVKcOvqAp3y69j71Rf4ii9fH4iF2NCVxmEJIc+MSgk2/uw5iEyDMHfxJLwcEIBB45dg3iBr5EdFIrbOdb5i0s+dRYqOL6a9Nw1DAv3Rd8RMLB3fHRXXI3CpiG+kIJa1g7uLCcRJVxCZkoK01FRZuR15DWmsNVy7qfipGSGEKEmlBFuV9Bu+Dw5DtnkAxs3+P7zWzwqiMz9i7a5rsu+1Kou9H4bgtb8hSccLr8yci9eH9YDk2m6s3XwWxcouz6QbXG1YpCZcQ6X8v31wDTezAHvXbjQOSwh5JlT6oQEhhJDmqfwtAkIIIU2jBEsIIRpCCZYQQjSEEiwhhGgIJVhCCNEQSrCEEKIhlGAJIUQjgP8P8n+LgQeUOB4AAAAASUVORK5CYII=;" parent="1" vertex="1">
          <mxGeometry x="338" y="90" width="344" height="255" as="geometry" />
        </mxCell>
        <mxCell id="ymRdBgUccURgdEPoGnt--3" value="&amp;nbsp;Это не B" style="ellipse;whiteSpace=wrap;html=1;aspect=fixed;" parent="1" vertex="1">
          <mxGeometry x="131" y="223" width="80" height="80" as="geometry" />
        </mxCell>
        <mxCell id="ymRdBgUccURgdEPoGnt--4" value="это&amp;nbsp;C" style="ellipse;whiteSpace=wrap;html=1;aspect=fixed;" parent="1" vertex="1">
          <mxGeometry x="223" y="333" width="80" height="80" as="geometry" />
        </mxCell>
        <mxCell id="ymRdBgUccURgdEPoGnt--13" style="edgeStyle=orthogonalEdgeStyle;rounded=0;orthogonalLoop=1;jettySize=auto;html=1;" parent="1" source="ymRdBgUccURgdEPoGnt--5" target="ymRdBgUccURgdEPoGnt--6" edge="1">
          <mxGeometry relative="1" as="geometry" />
        </mxCell>
        <mxCell id="ymRdBgUccURgdEPoGnt--5" value="это A" style="ellipse;whiteSpace=wrap;html=1;aspect=fixed;" parent="1" vertex="1">
          <mxGeometry x="35" y="333" width="80" height="80" as="geometry" />
        </mxCell>
        <mxCell id="ymRdBgUccURgdEPoGnt--6" value="это&amp;nbsp;A" style="ellipse;whiteSpace=wrap;html=1;aspect=fixed;" parent="1" vertex="1">
          <mxGeometry x="35" y="465" width="80" height="80" as="geometry" />
        </mxCell>
        <mxCell id="ymRdBgUccURgdEPoGnt--10" value="" style="endArrow=classic;html=1;rounded=0;exitX=0.5;exitY=1;exitDx=0;exitDy=0;entryX=1;entryY=0;entryDx=0;entryDy=0;" parent="1" source="ymRdBgUccURgdEPoGnt--3" target="ymRdBgUccURgdEPoGnt--5" edge="1">
          <mxGeometry width="50" height="50" relative="1" as="geometry">
            <mxPoint x="167" y="346" as="sourcePoint" />
            <mxPoint x="217" y="296" as="targetPoint" />
          </mxGeometry>
        </mxCell>
        <mxCell id="ymRdBgUccURgdEPoGnt--11" value="" style="endArrow=classic;html=1;rounded=0;exitX=0.5;exitY=1;exitDx=0;exitDy=0;entryX=0;entryY=0;entryDx=0;entryDy=0;" parent="1" source="ymRdBgUccURgdEPoGnt--3" target="ymRdBgUccURgdEPoGnt--4" edge="1">
          <mxGeometry width="50" height="50" relative="1" as="geometry">
            <mxPoint x="243" y="318" as="sourcePoint" />
            <mxPoint x="293" y="268" as="targetPoint" />
          </mxGeometry>
        </mxCell>
        <mxCell id="ymRdBgUccURgdEPoGnt--14" value="&lt;div&gt;A&lt;/div&gt;&lt;div&gt;11&lt;/div&gt;&lt;div&gt;15 15 22 8 16 30 11&lt;/div&gt;" style="text;html=1;align=center;verticalAlign=middle;resizable=0;points=[];autosize=1;strokeColor=none;fillColor=none;" parent="1" vertex="1">
          <mxGeometry x="-9" y="75" width="124" height="55" as="geometry" />
        </mxCell>
        <mxCell id="ymRdBgUccURgdEPoGnt--21" value="" style="edgeStyle=orthogonalEdgeStyle;rounded=0;orthogonalLoop=1;jettySize=auto;html=1;" parent="1" source="ymRdBgUccURgdEPoGnt--15" target="ymRdBgUccURgdEPoGnt--18" edge="1">
          <mxGeometry relative="1" as="geometry" />
        </mxCell>
        <mxCell id="ymRdBgUccURgdEPoGnt--15" value="Это C" style="ellipse;whiteSpace=wrap;html=1;aspect=fixed;" parent="1" vertex="1">
          <mxGeometry x="955" y="98" width="80" height="80" as="geometry" />
        </mxCell>
        <mxCell id="ymRdBgUccURgdEPoGnt--16" value="" style="shape=image;verticalLabelPosition=bottom;labelBackgroundColor=default;verticalAlign=top;aspect=fixed;imageAspect=0;image=data:image/png,iVBORw0KGgoAAAANSUhEUgAAARAAAAD9CAYAAAB0pyj9AAAAAXNSR0IArs4c6QAAAARnQU1BAACxjwv8YQUAAAAJcEhZcwAADsMAAA7DAcdvqGQAAEPGSURBVHhe7d0HXBRn+gfw39CbICAdQm9WiiBYsNfYYm9Rcyaa2GJikrsk5pJL/pdcjOWMJfFsMRpLotGokdixGxEsICJSBBFdukhnYf4zywgLu8DusCKa5/v5zEd2dpydeWb2mfed3X0f5iVnNxaEECKClvAvIYSojRIIIUQ0SiCEENEogRBCRKMEQggRjRIIIUQ0SiCEENEogRBCRKMEQggRjRIIIUQ0ha+yu05aik8G28r+ZtkKlBbkIiPhPH7btR+xubLZhLQarJYBrAcHoHMfaxhoPUL81yeRlM0Iz1azmTIcQQG6wqO62Ix4nFoeh2Km7v8hqlHaAmGLrmPv6v9i7Zrv8dORGLC+r2D+gpGwZ+lnM6T1YKwd0WnBAAT3boPSrAqgohCF2cKTApY1gEk7HVQmJyByy8XaaU8qiqpYlN7NQpGwLFGf8i5MRQ4So6IQHR2JC+E/YuXeGGg5B8LfWniekGeMZY3gPrUrHLQzcP3bE0h8wJ3KuYV4rHCNa8MlEKAkLR2Smw9l08NYCaRO1jCqyMSd41lgqPUhmtIuzJJucVi6aAtuPwls4JtYN88B4f9YgoOZ1fM8Ji/HR4OsZH/zqiqKkP8gHmd/2YLfYguEufyBBsy8hmDi+H7wdbSAgTQXKVGHsXPXKaSX1R44lu2MN9YtRnejugeTLTqLlfP+h1hhW/jX/dDvCj7/YAdSuXmsji9mfv0PhJmnYb+wfaz1SHz+n7FwauDEYOO3Yd5/jqKU//8qbp+qWC0bdJs4HSOC3WBtagim/DFy02/i1N7tOBJfKCwl7EfoTSxfsAlxwnay3eZj4xwbHJCLM8vqwbX/FIzr5w9nK2Nol+Yj4/Y57Nu5HzfzZItwy5hi2JLVGFeyBbOXn0KlsD7L4Z9i6ZgCbHxtBS4+eQ0V91fV7VPlePDUjbNJ1zewZFY3GGefwHf/2oE4ad1lWNYMjgMNkXvqAYqlhvBYNARe+VcQ/sM97qyuXZaFHve6ZkBmNgryq0911sYbvd71AXMmAmcP5ddZnqhHeQuE0YaeoSEMDExg4RKMV0cGQHrjOM5JhOcFbOFV/MJ1ddZw07rNv+JGlQ9GvjUdgbrVB4rH2AzBvMUT4Vt5HeHbN+GnP+KgF/Qa3p/dA6Z1ukTa0OK2JuPcJtn6+Gl3lPAOaYRF75EINSlHufBYJu8SdqxZJaznV8SVsMiP2lmz3rV7r6JMWFT17VONw/C5eL2fNSSnd2Hj2tXY8NNR3GsTjAnzp8FfR/316QXNwuJpAdC6GY5dm9bjh32nkW0/DPPeHAprEdun6f2tT+nx4Kj7urpm5jDT14WhuSWMdYSZchjmEe4ff4iSSv7NbwpjvpWRzV246iUDhtuSgoSs2uTB6sJxmAfMSu4j4QQlj+ZSmkAYs95457v/Yd136/DNP9+Ef/FBrFobgbz6wS7PwR1ZVyca0ZeOYevBaygztIMjdzCfcA7rAw9pJLav2I5jFy7i/OEfsGpPDPT9BqC7pbCQjDa0tYHiBzeq18dNCdlP3ubKsVqeeHmIN1Kvx6JEmMdjuKbpbWEdUVGJyKsCyrJv16w3OjEbrLAvqm+faqTJEdi5fg027otAZHQUIs8dxAbuzQIjJ7xU22BTmTRmG5Ys+gDLdx5F5I0Y3ODivO1EPPQ8OqODkbCQGjS9v/IaOh48dV839/gyLP7gfbz/3hpEljbxJjfjuikGLAozHwszGqbl5gPv9trIjYiDpKn1kiYpTSBsYRR2fPM1ln2zFGt/PIw069GY/1YvmCtcKbSElooBjEwdERrkAaRG4uoD4WmOjTWXTbIykKFdvRw/STPuI5+xgpWNsJCMFrS441lVVSk8bppZ2Ch01/sTv18sgJKLlEpU3z7VZMaewsnIVFToVa/PxNoHg4JcUZ4ejRv1WnBgdGrix0+GulwGraeK245uUz/Gig2b8b0sqf8Pq6f7cRdOE5i0ERbi2lPlFdw/OjpcGm6cWvurwvbJa+x4qBtnhqlCcXYm8kqFGY2x4WKBUhRJuCtFI/gbqq7DXGGYexfxZ+nWqSYo78JIH+HezVjExcUiOmIPVq87jjK/qRgXWPcEYiz64T3hpF6z6kvM9MrG8X0nkSaXZ7S5ZgXjMgZfCsvJpg+HwopvccifZdzJqs1tjbRChQTCJzLGFUMH++LBid9wvV7/WB0qb59a7DHq0/WydX379UcYbpuGY3uOIaXerjEmPbFQ/nVnBdY5ICyrhY6TFmGivx5i967BCllS56YDcZB/qzBMGZLvSsC69cDILrYwMax+g+rrKMZFnf1tavtqqHA8nk6cq+nZtIEu+xiP6yfoenQ6d4C7SxUeHruFPFnXhzSXSodOmpiEe5VDYOvItTWjs4S53HlTcAU71p+ArMGhYwzH0NEYs+A9lP/zExwSWiGVlZVg0yOwbueVes1aKXJShT95pm1gzFSioLhYmNGIqioYdB+FsDbR2HSUeyFPYb4IKm+fWrJwdvNSxBtwGdqgHXz6j8GwBR9A+tnHOHC/egkeW3QNu9cdQbrwGN4j8M4IY+EBzx1+ndqi9CrXJQqPrOl2wbQ/17eXXw5IPrAZv7u9haGLlmKYXFeTZa8Kf1VTZ3+b3j6BCsfj6cS5WhsrE6DgAYr41koDeYGFKTyGOEI34zbir/B3aCiBaILyFkg9jPNLsNOuRF52vZua0nykyloqNxF34zKO7DqDNG1neHjrCQsAksxsrv/PHV+uNSNbjptupheA0WbByt1p03Jz5q7bEmSkNd4Mlam0RO9hXZB94gCim9mPVXX7VMGyJnAPGYjeHcyQlVy9rtjo0/jl53PI1HaCm0dtXGSq8pH+JH7862bUfkpTrRTl3DYwOro1XRO+VeLp7qRw+jOl8fj1q3fw7of/xFdLq1sq60/LZSuBWvvb5PYJVDge6saZ308jCyu05ZJwY/jlTKy4hXIK0NgdEP3QjnC1Lkf6H7dRRMlDY5QnEF1LeAQGIiCgK0IHTMCiBUNgl3cJZ6L5jrYcPUt4ypYLQEBQGEa+2g8u7EOk3a09I1LPRCDROAyz3p6A/iHB6NZvNOZ+8AkWzQhBW6FJb+wUgHHDusIw+y4e2Qjr4yavdvrcFraFW6AvbOQ+2YGVP/zMryP8SJowQzxVtk91ZbAIGIMZc+di6uCeCOT2ITB0EKZM7gXryjQkJaqZkbhr/7UbEuj5TcDCCQMREtILQ6e9j/HtWe66rYi/b1AoScWdW9Vv0MRsxRsImt1fgQrHQ93Xtei/GMuWLeOmeQg0qHvvjdU2hqWfA+y4yd7fHe1suBzGGnKb4cjNs4KR/LnCYXWs4DPAGki6hfg4FS5QRGVKEwhj3AVjFyzCvPnzMXN0d1hKIrBh+Q+4Ue/qwpj4Yzy33Hxumjt7CvraZeP0ptX4LUVYgMNK/sDaFXuQZBKE4TNmY8aYXmgnOY7vvtmOhKrq9Tn3m4GhngbQsuqBacL6+GlioDkYw04YNX8qgs1li8ow+gbIPX0AlzRwH0yV7VMVw1Tg8taV2BNThU7Dp2PO/LcxZ8Yo+Osn4fC6VThY0xdQDcOwSNjzLbaey4J12ATMnD4OoZZx2POHXIDVpMn9fUKV46Hu61Y8zkdhuRSlj/JRUj9bOriiy9QgBE4L5qaOsDdjoOPhLXscMNkd5nXzB0z6dYRjmyKk/H4X5fSxrUa1irIO7WeswmLbQzVf7pLHOo3Fv//lhz/lvpRECGkdVLoHQgghyrSKBFL0IAHxqTlQ2gUvzULK7WRkqXv7gBDy1FFlOkKIaNSFIYSIRgmEECIaJRBCiGiUQAgholECIYSIRgmEECIaJRBCiGiUQAgholECIYSIRgmEECKaagnE2AGdOjpBTwOjdj+vWGMXdGpvAwM8xRhQnCnOLURTcdY2a2v+mfC3An4YuI6j38LiuVPR3zEXp04nKPzc/i/Duh8WLpmPEUEOqEy9iaS8eoMrNQPFWQ7FuWVoKM4N/piOH57Pf9Y/MbeHARKP7MCuPy4jrUBxNCcWPfH25jfgcWEFFm68LsxVxATMwZr53WHw+DSWL6wtVlSfquvTFLPBH2HlJB/hUS32wSF8+uFupAvbybI6aOvRHcOnTkQ/+xz8vvz/8Oud5v9EWFNxVremMcVZ/Pls6NIH4ycMRmfndjCS8oW+zmPfzt9wM0/xrdTSceaHeLQOfAUTRvSAj4MZtMtycC/2DH7deQi3a+u9aSzODXZh9P2nYEbPtkjeuxTLd19UGmwZthyV3FOV0gaeF3j4esOguBjFbbzh85IwUxkV16dJbNlNHBSKTtUUn9p2DvJlVhlGikdJZ7D9q2UIlzhg2N/GwpU7PZpLk3FWq6YxxVl4pp4m4sKahuL1xa8hyDgFEbs2YfuBKyhxH4GF74yBs/azj7NJ4Bv4+7xhcH4cid+2bsRPh2NQ6TMG7/59MjzkCptpKs5KEwhfd7R7/2CYZp3C7sP3akolKieFVMoFqLLhJhDLWqG9lyUeX/sT8VIbeLU3E55Rpun1aRz7CClPCmQ9mW5lKG3eMhUp2P/LeRTYhGFAAxXfVaXpOKtX05jirFzjcTEJDoOfURIOrVyPQ2cv4cKJ3Vi17U+UOYahp9LqAC0XZ5a1RJ/hoWhzdx+WLd+B4+cv4nz4Niz/72Fk2fXH8B4mwpK1mhvnBlogHvBw00Ve7FWkNDmCtZQLDlDVWIY16QwvxyrcTTyG1HQGLl4dodPgDSwV1qdp3AmlzsdRFbHRuFViBHcvZ2GOWBqOcz0ljwu5/1VdsEsRxVm5xuNi084SKM5AulyBgopbh7F58y+4kiPMqKMl4+wIOxsGOQk3kSmXJKV3byGxUBf2jg7CnLqaE2flx1O3LUwNgbyc2howDZOigsuw0sqG+0867b3hyqQjKS4dCcm50PX0hZfwnKKm16dxWk8qsOlCW5U782w28vIB07ZyIz2LoeE4q1rTuBrFWbnG46LFxRhsVZ3GPlOWjmvnzuF2lrLk1JJxLkFpKdDWxgEG8vE1s4ONMVBeWr/gqKAZcVaeQIQ6JKo0uxgmDlvfnoGPfr4rzFHk5esF/YIkJHAnctKdJFSYeMOngWSnyvo0jdENwmxZtbRN+G79Gvzfu5MRYNNYza1y7oQAtLUaL/XYJA3HWeWaxhyKs3KajkvLxjkBl6MyoddlPN4cGQhHCzNYugRh3LzR8GLyEBdzT1iuPvFxVqdFKQrL2sLH0xzS5EQkcY+lt+4gDfx9kLbVCzxjhZd/qi4XKZuWYf3P5/H4pcGYM38k1yBU4SrZiqhe07jlvUhxbq3468TtX1bj5+tl8Br9Nj5fvhpfvz8L/T3boPLucRy7rfk4N5BAWM0dUrNO8LYH7qUkgNXRhk7RHSRnAy5enRq5D9JyKvNSayqlxcXdQNTJXVi15zrg4N/AzUceIztYzY+SBuPMU7Gm8bPwQsW5FWMq0nBk1Qd49/0l+PcXH2Pl6SzoogCXDx5DlpKWaDXxcVaeQEqLUcqty9Copvy7aLrtfeDCbZzbmGXYsPEHbvoMg6wY6Hr6wFtY5lmRfRbu5AV327p3p0skmXgMM5hZCjMUmHCx4cJUokId38ZoMM7KVNc0NqquafwMvUhxrmK5tj6jVedWLGvghIA+vdHeunWkKT4ZlObeQ2KWM/r3fgkVtw9gb7RilcJa4uOsPIGw9/FAAtg6uzf7677ePp7QLb2OHV98hi+E6cu9MZAaezV4H6QldRj7d3w0bxBs5PbTxNEepshDnvwXFOS19YAz1wOTPFSsPasWDcZZmQZrGj8DL0qcJdk5gJEdHOTuN+r6DMHM6WPg1zp65TL8F8q8Ro5EFwMJTuw+rvQ+WI1mxFlpAmGYe4i+JoFOh34YaNfICzeBZR3h62kGacIVnElKQkpysmy6c+YaUlgbeHWwEJZUH8u6YtI3W7Fp6WS4ijwp+C/TXD9/BQUOQ7Bg3lj0CQlBj5dfw7tjO6Ii4SIiM4UF5bAsA7dBfeDOJuFqpJKveKpBU3GuoWpNYzVQnOsqjDyP6yUeGPH2bLzcMwSh/cdjwash0E8/jfOJwkIiaCLOdVgNxLjeNii48jN+T2n4I+TmxrnBm6jJ4T8jqsgVI+bNROe2IoNu1gFetiyS467VrUn66BpupQPOXh3E3wfRewkOXP4pS0mE+EqxwOPLm7F802nk2fXCmNdmYXJ/X1Rc24n/rguv81k6j2+K23SfjTmDbZEZ8QuOq/KpYBM0EmeBqjWN1UJxroN5dA4bl2/FlVJ39J88C6+O6gaT5INY/d99SBVZW1hGQ3HmsaweAse+DA/cwe97Ihv8vY8m4txoYSld12F4e+E4+OhmIub4NqzfF9tqfnzEek7F8g8HIWvXAnx9VO5L/k8Ja9oFE+ZMRV9fSy6rb8PK9acgqdRMLCjOtSjOz1ecG2yB8CpSDmPZks+x5XQajGxtoSfMbw2MnexhjkwkJzwS5jxlxnaw0UrCke8/xWdrNXdS8yjOcijOwpynTENxfm5LW/pOX4X3QuOx9q11iG7y68lELIpzy3he40y1cQkhojXahSGEkMZQAiGEiEYJhBAiGiUQQoholEAIIaJRAiGEiEYJhBAiGiUQQoholEAIIaJRAiGEiEYJhBAimsJvYVhWF/Yh4zBxeBBcrUyAwkykXDmInXsuQSJtHT/yUae0ICHk6VEorm3YeSY+nhcG/TsncTj8DOJyjdFpwGiEWSbj7FUJpM94/AS+tOBbS95A58obOHHgD/yZWAzbbsMwLFAHMWfi8IilX4wS0lIUujAdeoTAIuskNqzdi4hLl3Bm/3dYdyQdFqF90OnZD+4torQgIeRpUejCmLt0hAPuIzYll3u2+mrOhizAxtlW+O3vn+BQFgPWeiQ+/89YODXQGmHjt2Hef47KRnviRyw0az8ck8eGwdveHHqlebgXeww/7z6KlCL1Wwtuk5bi4x4JWDF/A24+2T59R/gHuaDk9tkGqoMRQp4GhS5MaX4mJHml0DUwhJ6uDnR0dKDrGIRh/sZIOHESCfybvjwPD1Jv4drlS7h8OQMmnX2ge2MXNu49wT2+hMhrt5GeWyxLQIzdy3jvo/Fwyr6A8EMncDWjEm69RmOgez4uXEhBWQNJqCGWnYagl2MmLoRfralzwVQW4GFaGnKKKXkQ0pIa+BTGC5O+XI91sjKE3DQrsM6CTEUmbgvV1aOiEpFXBZRl366uts5PidlghTe3c68wuJVfxvYV23HswiWcP1xdNV6vY290Fz8oOyGkFWgggaTh2PdLa0sRHoiD2NriNlaWQE4G0uVqCxfdu49HaId2tsIMQshzSWkCYZhSSO48KUN4EzczCoVn1KetrQ1UVaFSeCwju+uiDe3G6ioTQlo9hQTiHDoSI0JcoC1Xr4XR0gbDV84U8TWLykoudWhpyaqj15D1bqSQSmWP1PI8lBYk5K9CIYG07TAEo8f3hpvwjueThquzAxhpFiQ51fPUIcnMBizt4Sg3hr6xkwPMkI2sDGGGGp6X0oKE/BUofAqT89gUwQP6ItBFD5VaZnANGoMJgzxRemkXdkc9VPJFMmsEvNwDFmmncSJWsQbroxxddBwwCMHeRlzrwQR2Hfpi0sgQGN7ahx8jUtX+FKY8h4FL2ECEdrKCVqUe2nmGYuy4PrDNOYYdv96iL5IR0oIUEkhlTjxi03Xg7B+K7j1C4GsHpF/YiY27IpGvtHRf4wmELUxETGIF7Dpy6+vVHV2cTZF/Yx82/XhS1FfjmbI0xNwqgLl3EEJ79kCgVzuUJx7H1o37caeZRdwJIeqhujCEENEa+BiXEEKaRgmEECIaJRBCiGiUQAgholECIYSIRgmEECIaJRBCiGiUQAgholECIYSIRgmEECIaJRBCiGiUQAgholECIYSIRgmEECIaJRBCiGgK44G4TlqKTwZXD5fOshUoLchFRsJ5/LZrP2JzZbMJaTVYLQNYDw5A5z7WMNB6hPivTyIpu+5AVfywnIbenvAa4AwrOyPooQKPk1Jw69dbyCmgEeyaQ2kLhC26jr2r/4u1a77HT0diwPq+gvkLRsJezKjKhDwljLUjOi0YgODebVCaVQFUFKIwW3hSjl4HP3Sf5QvL0gdI2heNG6czoeXlg6BJrtCjc7pZlHdhKnKQGBWF6OhIXAivLgSl5RwIf2vheUKeMZY1gvvUrnDQzsD1b08g8QF3KucW4nG9fMCyBnDq7wz9u7E4vykWd6PTkX4sCvHXK6DtYI42wnJEHKVdmCXd4rB00RbcfjLgceCbWDfPAeH/WIKDmdXzPCYvx0eDrGR/86oqipD/IB5nf9mC32ILhLnVzUczryGYOL4ffB0tYCDNRUrUYezcdQrpZbXNR5btjDfWLUZ3o3rNz6KzWDnvf4gVtoV/3Q/9ruDzD3YglZvH6vhi5tf/QJh5GvYL26d27V4Vtk9VrJYNuk2cjhHBbrA2NQRT/hi56Tdxau92HImvra8j24/Qm1i+YBPihO1ku83Hxjk2OCAXZ5bVg2v/KRjXzx/OVsbQLs1Hxu1z2LdzP24KQ9CyrCmGLVmNcSVbMHv5KVQK67Mc/imWjinAxtdW4OKT11Bxf1XdPlWOB0/dOJt0fQNLZnWDcfYJfPevHYirN34uy5rBcaAhck89QLHUEB6LhsAr/wrCf7jHndW1y7KsNfz+rzvMLp7EmcPV5yXL6sDp9WHorH8Tx9cmolxueaIe5S0QRht6hoYwMDCBhUswXh0ZAOmN4zgnEZ4XsIVX8QvX1VnDTes2/4obVT4Y+dZ0BOrW5iTGZgjmLZ4I38rrCN++CT/9EQe9oNfw/uweMK3TfNTmy8cg49wm2fr4aXeU4iDN9Vn0HolQk3LIFb4D8i5hx5pVwnp+RVwJi/yonTXrXbv3KsqERVXfPtU4DJ+L1/tZQ3J6FzauXY0NPx3FvTbBmDB/Gvx11F+fXtAsLJ4WAK2b4di1aT1+2Hca2fbDMO/NobAWsX2a3t/6lB4Pjrqvq2tmDjN9XRiaW8JYSQEyhnmE+8cfoqSSf/ObwrgdUJLNJQiFZJCH7BQpTDp7wv4lA269bWA7JBi+ro+RGJ5MyaOZlCYQxqw33pHVxV2Hb/75JvyLD2LV2gjk1Q92eQ7uyLo60Yi+dAxbD15DmaEdHLmD+YRzWB94SCOF2rgXcf7wD1i1Jwb6fgPQ3VJYSEYbfBG74gc3amrsJmQ/eZsrx2p54uUh3ki9HosSYR5Prdq9Km+faqTJEdi5fg027otAZHQUIs8dxAbuzQIjJ7xU22BTmTRmG5Ys+gDLdx5F5I0Y3ODivO1EPPQ8OqODkbCQGjS9v/IaOh48dV839/gyLP7gfbz/3hpEljbxJueSgokBi8LMx8KMWgxTgfv7ryEDDghYOBSDPxmAwFAdJG86i4SU5ifMvzqlCYQtjMIOWV3cpVj742GkWY/G/Ld6wVzhSqEltFQMYGTqiNAgDyA1ElcfCE9zbKy5bJKVgQzt6uX4SZpxH/mMFaxshIVktKDFnSdVVXWKYDbKLGwUuuv9id8vFkBslUzVt081mbGncDIyFRV61eszsfbBoCBXlKdH40a9FhwYnZr48ZOhbp36fTJV3HZ0m/oxVmzYjO+FYuerp/txbwwTmNR04MtQXsH9o6NTtwKgEmrtrwrbJ6+x46FunBmmCsXZmcgrFWY0xoaLBUpRJFGs4MzYuyF4gT8scpIRs/0CInfEIqPIDN5TOsFKnxJIcynvwkgf4d7NWMTFxSI6Yg9WrzuOMr+pGBdY9wRiLPrhPeGkXrPqS8z0ysbxfSeRJndc+Nq4jMsYfCksJ5s+HAorvsUhf5ZxJ6s2tzXSChUSCJ/IGFcMHeyLByd+w3UR9WWeUHn71GKPUZ+ul63r268/wnDbNBzbcwwp9XaNMemJhfKvOyuwzgFhWS10nLQIE/31ELt3DVY0UOycYcqQfFcC1q0HRnaxhYlh9RtUX0cxLursb1PbV0OF4/F04lxNz6YNdNnHeFy/i80aw31CR5g/jMGFDTFIvSaBJPoOru5IRknbl+DUXvnpT1SnUgSliUm4V2kEW8e6bU224Ap+enJSr1yDXxPMMGjBexhuLyzA4WvjsuknsPbJcsK0fNkqcF3QWqZtYMxUoqRYhepQVVUw6D4KYW2i8ftRueaOCCpvn1qycHbzUtl6VqzehOMP7TFswQcY6Sg8LWCLrmGX/OvWSwyAO/w6tUXp1T3YGB6JWKHYedyD4jq1gXnJBzbj97sWGLRoKb5dV/0G/b9RbsKztdTZ36a3T6DC8Xg6ca7WxsoEKChCUf3WioU9bBy0kBOdyrVP5CJWJkVFdYV30kwqJRDG+SXYaVciL7veTU1pPlJlLRXupL5xGUd2nUGatjM8vGsL4cpq43J99QKuNVNT7T+9AIw2C1buTpuWmzN33ZYgI03pKVpXpSV6D+uC7BMHEN1U/7gJqm6fKljWBO4hA9G7gxmykqvXFRt9Gr/8fA6Z2k5w85ArEMyrykf6k/jxr5tR+ylNtVKUc9vA6OjWdE34Vomnu5NCAmFK4/HrV+/g3Q//ia+WVr8515++LzxbS639bXL7BCocD3XjzO+nkYUV2hoIMxrAL2dixS2UUwCFOyA6XLeY+0fXWL/6MYdvLLXt5gBTaRYe3lLhXCONUp5AdC3hERiIgICuCB0wAYsWDIFd3iWcieY72nL0LOEpWy4AAUFhGPlqP7iwD5F2t/aMSD0TgUTjMMx6ewL6hwSjW7/RmPvBJ1g0IwRthSa9sVMAxg3rCsPsu3hkI6yPm7zacQdeqy3cAn1hI/fJDqz84Wd+HeFH0oQZ4qmyfaorg0XAGMyYOxdTB/dEILcPgaGDMGVyL1hXpiEpUc2MhHRcuyGBnt8ELJwwECEhvTB02vsY356FVFhCHn/foFCSiju3qt+gidmKNxA0u78CFY6Huq9r0X8xli1bxk3zEGhQt7XAahvD0s8Bdtxk7++OdjZcDmMNuc1w5OZZwejJuZKZgYcPq7h1dUfn/txFMMAFnpP6ILi3IbIPxyCj/p1eojalCYQx7oKxCxZh3vz5mDm6OywlEdiw/AfcqHd1YUz8MZ5bbj43zZ09BX3tsnF602r8liIswGElf2Dtij1IMgnC8BmzMWNML7STHMd332xHglBr17nfDAz1NICWVQ9ME9bHTxMDzcEYdsKo+VMRLFeNn9E3QO7pA7hUJMxoBlW2T1X8Hf/LW1diT0wVOg2fjjnz38acGaPgr5+Ew+tW4WC6sKCKGIZFwp5vsfVcFqzDJmDm9HEItYzDnj/kAqwmTe7vE6ocD3Vft+JxPgrLpSh9lI+S+tnSwRVdpgYhcFowN3WEvRkDHQ9v2eOAye4wF/IHwzzGnU1/IjGZhVUfP/i94gNH62Lc3X4akWe49gp9hNtsraI2bvsZq7DY9lDNl7vksU5j8e9/+eFPuS8lEUJaB5XugRBCiDKtIoEUPUhAfGoOlHbBS7OQcjsZWerePiCEPHWtogtDCHk+UReGECIaJRBCiGiUQAgholECIYSIRgmEECIaJRBCiGiUQAgholECIYSIRgmEECKaagnE2AGdOjr9pWtosMYu6NTeBgZPcyAaijPFuYVoKs7aZm3NPxP+VsDCFB1Hv4XFc6eiv2MuTp1OUPi17F+GdT8sXDIfI4IcUJl6E0l59cZGaQaKsxyKc8vQUJwbTCD86Fr+sz7BggFWuH98C9b+FAGJspGj0BNvb/4CU61SEB5df9TgWkzAHKz990KM7WeBxPBoZDVw4FRdn6bIRqhqPxwz33wd0yZPwPB+PdDJnsX9hGTkV8htY8EdRN/MhlGHvhgxJBA6t8/jVq7YEXhqaSrOfD2fFYtfxajRr2DkqOEY3LcX/N2MkZcUj0wlA+dQnMWfz4YufTBl9hy8OmUSRg8Ok8U5J/E2spQMAN3SceaxWhYInPx3fPzOaxg7yhuPj5zD3frj1Goozg12YfT9p2BGz7ZI3rsUy3dfRFpBA8O/seWo5J6qlDY+PJyHrzcMiotR3MYbPi8JM5VRcX2aouXyCt55dww8y67i922bsftUEoyCpmPxm/3qjELPMFI8SjqD7V8tQ7jEAcP+Nhau3OnRXJqMs1olSSnOwjP1NBEX1jQUry9+DUHGKYjYtQnbD1xBifsILHxnDJy1n32cWVNfjPngM8ztZ477KZnCXEWairPSBMKXDezePximWaew+/C9mkpnykkhlXIBqmy4CcSyVmjvZYnH1/5EvNQGXu3NhGeUaXp9mtRpwAA4FZzB/1bswPELF3Hu0Aas3H8L+h37oaeycgMVKdj/y3kU2IRhQICuMFccTcdZvZKkFGflGo+LSXAY/IyScGjlehw6ewkXTuzGqm1/oswxDD09hYXqaNk4tx/9JobZPsDvKz/B6otKCgXX09w4N9AC8YCHmy7yYq8iRWH43vqkXHCAqsYyrElneDlW4W7iMaSmM3Dx6ggdZVdFGRXWpyEsq4vi5NMI3xeBO9xBfiI/PQOFsIBFA7WAK2KjcavECO5ezsIcsTQc53pKHhdy/6u63o4iirNyjcfFpp0lUJyBdLnxxStuHcbmzb/gSo4wo46WizOv6M5hrPr0K+y7WaBye6I5cVaeQHTbwtQQyMvJEmY0RooK7qSQVjY84o9Oe2+4MulIiktHQnIudD194SU8p6jp9WkKP4Zp4qmfsefc3ZpKdbx2rs4wZSV4mCHMqI/NRl4+YNpWbqBWMTQcZ1VLklajOCvXeFy0uBiDrarz5mTK0nHt3DnczlKWnFouzry0i0cQ+0h4oKpmxFl5AhHKCKjS7GKYOGx9ewY++vmuMEeRl68X9AuSkMCdyEl3klBh4g2fBpKdKut7mljTYEwa5IHi6ydxXukVhVfOnRCAtlbjldqapOE4q1ySlENxVk7TcXnWcVaN+Dg3eBNVU1jWFj6e5pAmJyKJeyy9dQdp4O+DtK1eoBVhdZwxasHf4M9GY8e2syhstK/c+qhekvTZet7jTGo1kEBYDdz3Fph1grc9cC8lgTtxtKFTdAfJ2YCLV6dG7oO0PFbLCn3nL8ZI+wwcWL0Ol/IaO6kZ7sqiiShpMM48FUuSPksvRJxfOOLjrDyBlBajlFuXoVFN9WbRdNv7wIXbOLcxy7Bh4w/c9BkGWTHQ9fSBt7DMs8aypuj6+geY0v4xjq1djgPJTTV1TbjYcGEqUaEMZ2M0GGdlGipJ+qy8CHGuYrm2PqNV51Ysa+CEgD690d76eU1T4uOsPIGw9/FAAtg6uzf7677ePp7QLb2OHV98hi+E6cu9MZAaezV4H6QlsawBOkx+H28Esbj0/VLsjlOhWlVbDzhzPTDJQ8XSkWrRYJyVabAk6TPwosRZkp0DGNnBQe5+o67PEMycPgZ+ra9XrppmxFlpAmGYe4i+JoFOh34YaNdYE7NxLOsIX08zSBOu4ExSElKSk2XTnTPXkMLawKuDhbCk+ljWFZO+2YpNSyfDtRknhe2gdzB3kD1yrxzHNbjXlNWUlda0USwbz7IM3Ab1gTubhKuRucJccTQV5xqqliRVA8W5rsLI87he4oERb8/Gyz1DENp/PBa8GgL99NM4nygsJIKm4mziEoDgbt1kU4AT3+Jqg5e6hsged/VQfL81N84NfpU9Ly0Pjj0HI6xLW6RdvQ6Jkq/pNsksFK+M64jciC04kyz3MVbpY7QLHISuRvfwx6VUVIm5iabXBUPG+8M07g/8FMllTpE34nwGTUcPR32YOHbmgswHunaye3QaZxNqm3UsqwOb7m9gwXgfFEZswKaLWeK2XY5G4swx7zgQvX090J7b7qDgIHR2t+IuvBew638/ISqvGd9BoDjXwZSlIeZWAcy9gxDaswcCvdqhPPE4tm7cjzvN6WlpKM4eo/6BhePC0LVrMPydzbjVmMElIFj22M8wCYf4dQs0EedG68Loug7D2wvHwUc3EzHHt2H9vthW8+Mj1nMqln84CFm7FuDrowXC3KeHNe2CCXOmoq+vJQqubMPK9acgqdRMLCjOtSjOz1ecG/0YtyLlMJYt+RxbTqfByNYWesL81sDYyR7myERygrrfmhHJ2A42Wkk48v2n+Gyt5k5qHsVZDsVZmPOUaSjOz21lOt/pq/BeaDzWvrUO0U1+PZmIRXFuGc9rnKm0JSFEtEa7MIQQ0hhKIIQQ0SiBEEJEowRCCBGNEgghRDRKIIQQ0SiBEEJEowRCCBGNEgghRDRKIIQQ0SiBEEJEowRCCBFN4cd0fBEg+5BxmDg8CK5WJkBhJlKuHMTOPZcgqV9f8y+Gr4k6fsJgdHZuByNpPjJun8e+nb/hZh79HpH8NSmMSGbYeSY+nhcG/TsncTj8DOJyjdFpwGiEWSbj7FUJpK1kAJaWxtdEfWvJG+hceQMnDvyBPxOLYdttGIYF6iDmTBwesfRTd/LXo9CF6dAjBBZZJ7Fh7V5EXLqEM/u/w7oj6bAI7YNOrac6QItTvyYqIS8+hS6MuUtHOOA+YlNyuWerr6psyAJsnG2F3/7+CQ5lMWCtR+Lz/4yFUwOtETZ+G+b956hsuDh+fFiz9sMxeWwYvO3NoVeah3uxx/Dz7qNIKVL/qu0xeTk+DL2J5Qs2Ie7J9nWbj41zbHDgH0twMFOYx7+u1xBMHN8Pvo4WMJDmIiXqMHbuOoX0MvVf123SUnzcIwEr5m/AzSevq+8I/yAXlNw+20BZQ0JebAotkLy7sYhJyYOOAV9j1UA2Gerwi1UXn5HJu4Qda1Zhzer/ctOviCthkR+1U3j8X6zdexVlwqKM3ctY8M44eFdcR/j2Tdh5PBY6/tPw7py+MGvG6NNNYWyGYN7iifCtrH7dn/6Ig17Qa3h/dg+Yinhd9WuiEvLia+BTGC9M+nI91snqrHLTrMA6CzIVmbgdHY1oboqKSgQ/6HdZ9m3ZY9mUmF1TRNm5Vxjcyi9j+4rtOHbhEs4f/hEr98ZAr2NvdBdf1aFJzmF94CGNFF73Ive6P2DVnhjo+w1A99ZRZ4mQ514DCSQNx75fimWyOqvcdCAOYgsD2Fhx79acDKTLVXUouncfj9AO7WyFGepidIQq9EILSVfx5oyNdTsgKwMZ2rXLSTPuI5+xgpWNsBAhpFmUJhCGKYXkzk3ExVVPNzMKhWfUp63NvbmrqlApPJaR9QO0oa1YT0gljElPLHzSOlLSQuLxr8u4jMGX8st9OBRWzXhdQkhdCgnEOXQkRoS4QFvuPgGjxb0Z+dK7Im5ZVFZyqUNLi3vbypH1bqSQSmWP1MYWXcOuJ62jBlpI/Ouy6SewVn45blq+bBXCk4WF1PBi1kQlpHkUEkjbDkMwenxvuAnveD5puDo7gJFmQZJTPU8dksxswNIejnJFOIydHGCGbL6HIU5VPtJlVegbbiHJXtcIKIiTWy69AIw2lwjlulOqeiFrohLSTApfJMt5bIrgAX0R6KKHSi0zuAaNwYRBnii9tAu7ox4q+SKZNQJe7gGLtNM4EatYxPlRji46DhiEYG8j7ipuArsOfTFpZAgMb+3DjxGpKFNYX+MsOg1GL6csXAy/iqwn/9cxGCO7muD28ZNIED4afpStgw6DhyHUXR8sYwJrryCMnPY6Xulaheij15Gj5he/ynMYuIQNRGgnK2hV6qGdZyjGjusD25xj2PHrLfoiGflLUkgglTnxiE3XgbN/KLr3CIGvHZB+YSc27opEfpWyN0njCYQtTERMYgXsOnLr69UdXZxNkX9jHzb9eFLUV+NVTSD86964UwF7/x7oEdYTgT42qEo9ix0bdiFWxC2dp1YTlZDnGBWWIoSI1sDHuIQQ0jRKIIQQ0SiBEEJEowRCCBGNEgghRDRKIIQQ0SiBEEJEowRCCBGNEgghRDRKIIQQ0SiBEEJEowRCCBGNEgghRDRKIIQQ0RR+zu86aSk+GVw92jHLVqC0IBcZCefx2679iM2VzSakVTAZ2h99+psKj2qxJamIXBKFTGG8GH5UPX1PT/gOckY7O0PoSktRkHgXcfsSkF+s/pg0pJbCgELmHQcizC4Jv67fhZOXo3HrYRVcug/DwE5ViI6Ix2M1RxAj5GlhiwqRE38P969WTw8f6sDc3QjlV+ORcLMQVcK5qtu+C3rOcofe/TSknEmFJE8P1sHucHYoQVp0fs1yRH3KuzAVOUiMikJ0dCQuhFfXcdFyDoS/tfA8Ia1AxYMsZMVlyqa8Ugu49rFG+Z+Xcf6XB6ioaX2YwG24K3Tir+HS1ptIjU7HvT8iERcjhY6bFZ5iaaK/BKVdmCXd4rB00RbcfpKZA9/EunkOCJcrHcmXmPxokJXsb15VRRHyH8Tj7C9b8FtsgTC3uvmoSolJlu2MN9YtRnejulcDtugsVs77H2KFbZGVtvS7gs8/2IFUbh6r44uZX/8DYeZp2C9sn9qlNzVYApPVskG3idMxItgN1qaGYMofIzf9Jk7t3Y4j8bVjKapeolMPrv2nYFw/fzhbGUO7NB8Zt89h3879uCmMIMmyphi2ZDXGlWzB7OWnUCmsz3L4p1g6pgAbX1uBi09eQ8X9VXX7VDkePHXjbNL1DSyZ1Q3G2Sfw3b92IK6R4S/1fDuh2zRnVF64hMuHsuqM28vqWsB5oC0qr9/C/fu1p7r1xOEI8rqHC59fQ57c8kQ9ylsgjLZQuMkEFi7BeHVkAKQ3juOcRHhewBZexS9COct1m3/FjSofjHxrOgJ1aw+U6iUmtfnqD8g4t6mmRObuKMUxVuuz6D0SoSblqDPQujqlNzVcAtNh+Fy83s8aktO7sHHtamz46SjutQnGhPnT4K+j/vr0gmZh8bQAaN0Mx65N6/HDvtPIth+GeW8OhbWI7dP0/tan9Hhw1H1dXTNzmOnrwtDcEsaN1PFhrT0RNMMdbYpzkCWpgla9XMBU5CLtcFyd5MEa2MLBVwdl8Rlo+gwjjVGaQBiz3nhHVoxpHb7555vwLz6IVWsjFDN1eQ7uyLo60Yi+dAxbD15DmaEdHNsJz3NULzGpDb4GVfGDGzUlMhOyn7zNlWO1PPHyEG+kXo9FiTCPp1bpTQ2XwJQmR2Dn+jXYuC8CkdFRiDx3EBu4NwuMnPBSbYNNZdKYbViy6AMs33kUkTdicIOL87YT8dDz6IwORsJCaniaJT8bOh48dV839/gyLP7gfbz/3hpEljbSQjAGShIkyCk2g8fEnug5yQE6jSRCVssITlP8Ya8lwa1jmdzJQq2P5lCaQNjCKOyQFWJairU/Hkaa9WjMf6sXzBUOjFZNiUkjU0eEBnkAqZG4+kB4mqN6iUkt2dWjqqpODbtGmYWNQne9P/H7xQKILTan6RKYmbGncDIyFRV61eszsfbBoCBXlKdH40a9FpwqJTqruO3oNvVjrNiwGd8LFfZWT/fjznsTmLQRFuLaU+UV3D86OnULeCmh1v6qsH3yGjse6saZYapQnM3f2xBmNIBJuYPozRdxacVRXP6zDIb+brDnkooyfPJwnNYLnT3KcXd7FO7nU/JoLuVdGOkj3JMVbopFdMQerF53HGV+UzEusO4JxFj0w3vCSb1m1ZeY6ZWN4/tOIk0uz6hcYpI7WbW5rZFWqJBA+ETGuGLoYF88OPEbrosoD/HE0ymBaY9Rn1YXJ//2648w3DYNx/YcQ0q9XWuqRCfLaqHjpEWY6K+H2L1rsOJJhb16lfgYpgzJdyVg3XpgZBdbmBhWv0H1dRTjos7+qlJCVEaF4/G0S43yCSc3NZ87o5Wvj9Uxhdus3vDzrkDqtrO4mSCiuhhRoNKhkyYm4V7lENg6cm3N6CxhLndQCq5gx/oTkDU4dIzhGDoaYxa8h/J/foJDQiukusRkBNbtvFKvWStFTqrwJ8+0DYyZShQUq1BkpaoKBt1HIaxNNDYd5V7IU5gvgsrbp5YsnN28FPEG3Pls0A4+/cdg2IIPIP3sYxy4X70Ejy/RuXvdEaQLj+E9Au+MkL98usOvU1uUXuW6ROGRNd0umPYHw7fd5SQf2Izf3d7C0EVLMUyuWc6yV4W/qqmzv01vn0CF46HJOLO6bWAbbAk2MRWZktqrlaE516erKERx7T18GdbQAl5/6w4vmwLc3ngBiSkia6oSBcpbIPUwzi/BTrsSedn1bjlJ85H6pMTkjcs4susM0rSd4eFdW8dS1RKTWm7O3HVbgoy0+lVulai0RO9hXZB94gCiG+sfq0CTJTD5jwzdQwaidwczZCVXrys2+jR++fkcMrWd4OYhV9+T12SJzlKUc9vA6OjWdE34Vomnu1OdGr08pjQev371Dt798J/4aml1S2X9ablsJVBrf1UoISqjwvFQN878fhpZWKEtl4QVmNjCY7Qf3H1r48lqtYFjR1NUJUqQLdcCZttYoeNbPeBpnoWYdWcpeWiY8gSiawmPwEAEBHRF6IAJWLRgCOzyLuFMNN/RlqNnCU/ZcgEICArDyFf7wYV9iLS7tWdE6pkIJBqHYdbbE9A/JBjd+o3G3A8+waIZIWgrNOmNnQIwblhXGGbfxSMbYX3c5NVOn9vCtnAL9IWN3Cc7sPKHn/l1hB9JE2aIp8r2qa4MFgFjMGPuXEwd3BOB3D4Ehg7ClMm9YF2ZhqRENTMSd+2/dkMCPb8JWDhhIEJCemHotPcxvj3LXbcV8c34Qkkq7tyqfoMmZiveQNDs/gpUOB7qvq5F/8VYtmwZN81DoIHcsefl5SCfu5ZZ9A6Cb3cH2Aa4osMbPeBu+Qh3jtyr+RibNbRC57mhcGlXgnun7qHM0gY2HWyrJ5820G3kZitRjdIEwhh3wdgFizBv/nzMHN0dlpIIbFj+A27Uu7owJv4Yzy03n5vmzp6CvnbZOL1pNX5LERbgsJI/sHbFHiSZBGH4jNmYMaYX2kmO47tvtiNBKJXp3G8GhnoaQMuqB6YJ6+OniYHmYAw7YdT8qQiWK2rN6Bsg9/QBXCoSZjSDKtunKoapwOWtK7Enpgqdhk/HnPlvY86MUfDXT8LhdatwsKYvoBqGYZGw51tsPZcF67AJmDl9HEIt47DnD7kAq0mT+/uEKsdD3deteJyPwnIpSh/lo6RetmSQi7hNUbgrMYD90ED4jfSCRVUGYr4/j0S5j2vh7AC7dlpg9NrA+ZVuCHottGbqOtwRusJiRLxWUdqy/YxVWGx7qObLXfJYp7H497/88Kfcl5IIIa2DSvdACCFEmVaRQIoeJCA+NQdKu+ClWUi5nYwsdW8fEEKeOqrOTwgRjbowhBDRKIEQQkSjBEIIEY0SCCFENEoghBDRKIEQQkSjBEIIEY0SCCFENEoghBDRKIEQQkRTLYEYO6BTRyfo/YXHT2CNXdCpvQ0M8BRjQHGmOLcQTcVZoTKdPBam6Dj6LSyeOxX9HXNx6nSCws/t/zKs+2HhkvkYEeSAytSbSMqrN7hSM1Cc5VCcW4aG4txgAuGH5/Of9QkWDLDC/eNbsPanCEiUDT2Hnnh78xeYapWC8Oj6w47XYgLmYO2/F2JsPwskhkcjq4EDp+r6NIW/CLVtPxwz33wdUydNwIj+vdDZkUFGQiLyKuS2seAOom9mw6hDX4wYEgid2+dxK1fsEF61NBVnviDYisWvYtToVzBy1HAM7tsL/m7GyEuKR2b9Gguclo4zj9WyQODkv+Pjd17D2FHeeHzkHO7WH4C5lceZZ+jSB1Nmz8GrUyZh9OAwWZxzEm8jS8kI8i/6+dxgF0bffwpm9GyL5L1LsXz3RaQVNDBWKVuOSu6pSmnjY5l6+HrDoLgYxW284fOSMFMZFdenKVrOo7Ho3bHwlsbgj582Y+fxW9Dh9n3x/EGwlGviMowUj5LOYPtXyxAuccCwv42FK3d6NJcm48wWXcdevnDWmu/x05EYsL6vYP6CkbBX1lRv4Tizpr4Y88FnmNvPHPdTMoW5ilp7nFnTULy++DUEGacgYtcmbD9wBSXuI7DwnTFw1n72cW7p81lpAmFZI3TvHwzTrFPYfbh2jEnlpJBKuQBVNtwEYlkrtPeyxONrfyJeagOv9mbCM8o0vT5N8u3TFy89PouNy37E0fN8waMtWLE9Cqx3f4Q5CgvJYSpSsP+X8yiwCcOAgOYNiqfpOKtX07hl49x+9JsYZvsAv6/8BKsvZgtzG9Za42wSHAY/oyQcWrkeh85ewoUTu7Fq258ocwxDT6XVAV7s87mBFogHPNx0kRd7FSkK43/XJ+WCA1Q1lmFNOsPLsQp3E48hNZ2Bi1fHRqqHqbA+DWFZXdhYtwXSk3Fb7vgW3U7CA7SDtZ0wo56K2GjcKjGCu5ezMEcsDce5npLHhdz/qi7Ypajl4swrunMYqz79CvtuFqh8nWuNcbZpZwkUZyBdrkBBxa3D2Lz5F1zJEWbU8WKfz8oTiG5bmBryg1/X1oBpmBQVXIaVVjY8ZJhOe2+4MulIiktHQnIudD194SU8p6jp9WmOtqycJqoqZVcl2YnNJzbuiLNPnlOGzUZePmDaVm6kZzE0HGdVaxpXa8k4A2kXjyD2kfBAVa0wzlpcjMFW1UmCTFk6rp07h9tZypLTi30+K08gQh0SVZpdDBOHrW/PwEc/3xXmKPLy9YJ+QRISuBM56U4SKky84dNAslNlfU8Da9oH7363Gd/ODUW96i1KlHMnBHe4tBo6IirScJxVrmnMeVZxVk/rjLM6XvTzucGbqJrCsrbw8TSHNDkRSdxj6a07SAN/H4RrarUmj85h0xf/wr9/vKxQWf55oXpNY/LCa6HzuYEEwtZpojWLWSd42wP3UhLA6mhDp+gOkrMBF69OjVZRb2n8XemCjFRIilTpqzLc8pqIkgbjzFOxpvHzo5XG+TnQUuez8gRSWoxSbl2GRjXl30XTbe8DF27j3MYsw4aNP3DTZxhkxUDX0wfewjLPDtdX5JpusoLM8smMLwTNBbOqwdibcLHhwlSiQh3fxmgwzspU1zQ2qq5p/FxqfXGuYrkThtGqcyuWNXBCQJ/eaG+t/htQs1r+fFaeQNj7eCABbJ3dm/11X28fT+iWXseOLz7DF8L05d4YSI29GrwP0lL4SnKSzHzA0Q3ecp9gGXu7ww7ZyGronltbDzhzPTDJQ8Xas2rRYJyVabCm8fOiFcZZkp0DGNnBQe5+o67PEMycPgZ+z7hX/izOZ6UJhGHuIfqaBDod+mGgnXyuVQ/LOsLX0wzShCs4k5SElORk2XTnzDWksDbw6mAhLKk+lnXFpG+2YtPSyXBtxklxK+IU7rXphdffexWDuoeix7CZeGdaILSSTuO8kgqSLMvAbVAfuLNJuBqZK8wVR1NxrqFqTWM1aCrOJi4BCO7WTTYFOPEtgTZ4qWuI7HFXD8XzoLXGuTDyPK6XeGDE27Pxcs8QhPYfjwWvhkA/nTtfEoWFRHhez+cGv8qel5YHx56DEdalLdKuXodEydd0m2QWilfGdURuxBacSZa7lVP6GO0CB6Gr0T38cSkVVUo+JWiSXhcMGe8P07g/8FMklznFrIPD5sfjWlIl7DsEI6RnDwR4mOJRzGFs2fQ7UsvrrpNldWDT/Q0sGO+DwogN2HQxS9y2y9FInDnmHQeit68H2ncLQVBwEDq7W3EX3gvY9b+fEJWnSj+4ARqKs8eof2DhuDB07RoMf2czbjVmcAkIlj32M0zCIX7dgtYcZ6YsDTG3CmDuHYRQ7nwJ9GqH8sTj2LpxP+40p6f1nJ7PjRaW0nUdhrcXjoOPbiZijm/D+n2xrebHR6znVCz/cBCydi3A10cLhLlPD2vaBRPmTEVfX0sUXNmGletPQVKpmVhQnGtRnJ+vODf6MW5FymEsW/I5tpxOg5GtrQqfJ7ccYyd7mCMTyQnqfjtJJGM72Ggl4cj3n+KztZo7qXkUZzkUZ2HOU6ahOD+3pS19p6/Ce6HxWPvWOkTXuSdONIni3DKe1zhTbVxCiGiNdmEIIaQxlEAIIaJRAiGEiEYJhBAiGiUQQoholEAIIaJRAiGEiEYJhBAiGiUQQoholEAIIaJRAiGEiKbwWxi+toR9yDhMHB4EVysToDATKVcOYueeS5DUL0P4DPAlHD8ZbCv7m2UrUFqQi4yE8/ht137ENm/cGUKImhQGFDLsPBMfzwuD/p2TOBx+BnG5xug0YDTCLJNx9qoE0mc8fgI/cE6YXRJ+Xb8LJy9H49bDKrh0H4aBnaoQHRGPx61kfAdC/goUujAdeoTAIuskNqzdi4hLl3Bm/3dYdyQdFqF90Km1DO6tVglHQsjTotCFMXfpCAfcR2wK1x8QruZsyAJsnG2F3/7+CQ5lMWCtR+Lz/4yFUwNXezZ+G+b956hstCd+eEez9sMxeWwYvO3NoVeah3uxx/Dz7qNIKVK/tcB3YZZ0i8PSRVtw+8nrB76JdfMcEP6PJTiYSS0QQlqKQgsk724sYlLyoGPAl0g0kE2GOvxi1bUjZPIuYceaVViz+r/c9CviSljkR+0UHv8Xa/deRZmwKGP3Mha8Mw7eFdcRvn0Tdh6PhY7/NLw7py/MxA4eq1YJR0LI06J0QCGW9cKrKz5GP4vaqznLpmK/kis8y3bE62vfh8e5f+HDXcnC3FrO47/GP3unYu07axFdUf1/jfq8h5XTjbF/8WcIz1OvxSB/E5XHslI8ur0Pa1ccQJKwfkJIy2jgY9w0HPt+KZbJyiRy04E4iB3X28bKEsjJQLrcoOxF9+7jEdqhXW0eUAuVcCSkdVCaQBimFJI7NxEXVz3dzCgUnlGfNl8SvKoKfMGsGrL3uTa0dWSP1PfClXAk5PmkkECcQ0diRIhLndJ4jFZ1aTwxF/hKvtaelpasOnoNWU9DCqlU9qjZnv8SjoQ8nxQSSNsOQzB6fG+4Ce94Pmm4OjuAkWZBklM9Tx2SzGzA0h6OcmPoGzs5wIwvtZchzGim576EIyHPKYUvkuU8NkXwgL4IdNFDpZYZXIPGYMIgT5Re2oXdUQ+VfJHMGgEv94BF2mmciFV8Az/K0UXHAYMQ7G2EKtYEdh36YtLIEBje2ocfI1JR1sBHwQ2RfZHMtQoSSRna2DnApUNPjJsyGO5lf+Lnny63im/LEvJXoZBAKnPiEZuuA2f/UHTvEQJfOyD9wk5s3BWJ/Cplb87GEwhbmIiYxArYdeTW16s7ujibIv/GPmz68aSoN/tTK+FICFEb1YUhhIjWwMe4hBDSNEoghBDRKIEQQkSjBEIIEY0SCCFENEoghBDRKIEQQkSjBEIIEY0SCCFEJOD/AbItKiwMTp/6AAAAAElFTkSuQmCC;" parent="1" vertex="1">
          <mxGeometry x="1168.0033129882813" y="41.003323160807355" width="272" height="253" as="geometry" />
        </mxCell>
        <mxCell id="ymRdBgUccURgdEPoGnt--17" value="&lt;div&gt;B&lt;/div&gt;&lt;div&gt;13&lt;/div&gt;&lt;div&gt;&amp;nbsp;17 18 62 32 17 36 31&lt;/div&gt;" style="text;html=1;align=center;verticalAlign=middle;resizable=0;points=[];autosize=1;strokeColor=none;fillColor=none;" parent="1" vertex="1">
          <mxGeometry x="818" y="67" width="135" height="55" as="geometry" />
        </mxCell>
        <mxCell id="ymRdBgUccURgdEPoGnt--18" value="Это не С" style="ellipse;whiteSpace=wrap;html=1;aspect=fixed;" parent="1" vertex="1">
          <mxGeometry x="955" y="214" width="80" height="80" as="geometry" />
        </mxCell>
        <mxCell id="ymRdBgUccURgdEPoGnt--19" value="Это А" style="ellipse;whiteSpace=wrap;html=1;aspect=fixed;" parent="1" vertex="1">
          <mxGeometry x="873" y="302" width="80" height="80" as="geometry" />
        </mxCell>
        <mxCell id="ymRdBgUccURgdEPoGnt--20" value="Это В" style="ellipse;whiteSpace=wrap;html=1;aspect=fixed;" parent="1" vertex="1">
          <mxGeometry x="1035" y="302" width="80" height="80" as="geometry" />
        </mxCell>
        <mxCell id="ymRdBgUccURgdEPoGnt--23" value="" style="endArrow=classic;html=1;rounded=0;exitX=0;exitY=1;exitDx=0;exitDy=0;" parent="1" source="ymRdBgUccURgdEPoGnt--18" target="ymRdBgUccURgdEPoGnt--19" edge="1">
          <mxGeometry width="50" height="50" relative="1" as="geometry">
            <mxPoint x="971" y="320" as="sourcePoint" />
            <mxPoint x="1021" y="270" as="targetPoint" />
          </mxGeometry>
        </mxCell>
        <mxCell id="ymRdBgUccURgdEPoGnt--24" value="" style="endArrow=classic;html=1;rounded=0;exitX=1;exitY=1;exitDx=0;exitDy=0;entryX=0;entryY=0;entryDx=0;entryDy=0;" parent="1" source="ymRdBgUccURgdEPoGnt--18" target="ymRdBgUccURgdEPoGnt--20" edge="1">
          <mxGeometry width="50" height="50" relative="1" as="geometry">
            <mxPoint x="1062" y="288" as="sourcePoint" />
            <mxPoint x="1112" y="238" as="targetPoint" />
          </mxGeometry>
        </mxCell>
        <mxCell id="ymRdBgUccURgdEPoGnt--26" value="Это В" style="ellipse;whiteSpace=wrap;html=1;aspect=fixed;" parent="1" vertex="1">
          <mxGeometry x="1035" y="429" width="80" height="80" as="geometry" />
        </mxCell>
        <mxCell id="ymRdBgUccURgdEPoGnt--27" value="" style="endArrow=classic;html=1;rounded=0;exitX=0.5;exitY=1;exitDx=0;exitDy=0;entryX=0.5;entryY=0;entryDx=0;entryDy=0;" parent="1" source="ymRdBgUccURgdEPoGnt--20" target="ymRdBgUccURgdEPoGnt--26" edge="1">
          <mxGeometry width="50" height="50" relative="1" as="geometry">
            <mxPoint x="1167" y="415" as="sourcePoint" />
            <mxPoint x="1217" y="365" as="targetPoint" />
          </mxGeometry>
        </mxCell>
        <mxCell id="ymRdBgUccURgdEPoGnt--28" value="&lt;div&gt;C&lt;/div&gt;&lt;div&gt;14&lt;/div&gt;&lt;div&gt;&amp;nbsp;19 17 96 19 15 34 48&lt;/div&gt;" style="text;html=1;align=center;verticalAlign=middle;resizable=0;points=[];autosize=1;strokeColor=none;fillColor=none;" parent="1" vertex="1">
          <mxGeometry x="1588" y="35" width="135" height="55" as="geometry" />
        </mxCell>
        <mxCell id="ymRdBgUccURgdEPoGnt--29" value="" style="shape=image;verticalLabelPosition=bottom;labelBackgroundColor=default;verticalAlign=top;aspect=fixed;imageAspect=0;image=data:image/png,iVBORw0KGgoAAAANSUhEUgAAATQAAAFLCAYAAABY9XCLAAAAAXNSR0IArs4c6QAAAARnQU1BAACxjwv8YQUAAAAJcEhZcwAADsMAAA7DAcdvqGQAAGEHSURBVHhe7d0JXFVl/vjxz2GTTRAQEMVARRR3QFBc0MzUzNTcKi2tqaxcSsfqN83YTNP8p5nMZUyxzKXFtdI0LalExd1ScENUZFFEFFlFRJAL53/u5SgXZLkgAl6f9+t1Xnqf+3CW733u9zzPufeeR3rEo7WMIAiCETBR/xUEQXjgiYQmCILREAlNEASjIRKaIAhGQyQ0QRCMhkhogiAYDZHQBEEwGiKhCYJgNCr9Ym2rZ+fw/uBmuv/LcgF52Rkkx+znx/WbicrQFQtCg2D7xGP0f8xOfVRCvnmBw7MjuCpJakkJ2dyBjjOC8SiM5cDCKK4V3l1HeLCY2jdx+ED9/10cOj1OsFscPyxdz84/Ijl9pQjPXkN5vHMRkeFnuF5OIxGE+iDfyCH9zEUuHS1erlwxw6GNNbeOniHmVA5FZdqqLJvT7Nm+dHTP5tQXR0i5IdqyMah6yFmQTmxEBJGRhzkQ+g0LNp7ExMMfXxf1eUFoAAoup5IafVW3ZOY50qq/C7d+/4P931+m4K5kJmPTO4Cu3eDSht+5kKY+ITzwqhxyzu4RzZwZX3L2dqPwf50lU1sQ+pfZbL1aXOb13Dz+OshZ93+tooIbZF0+w97vv+THqGy1VNuQwN57CM+MHYCPuyOWmgwSIraxbv0ukvJLGp0sd+HVJbPoZV2mId7Yy4KpXxCl7ot2u+91O8KH767lglImm/nw4sd/Idghkc3q/skuw/nwv6NpWaZR3yafWcXU//5GnvbvDdw/Q8kmrvR4ZiJPBbbGxc4K6dZ1MpJOsWvjan49k6PWUo8j6BTzpq8gWt1Pucc0lr/myha9OMuyBa0eG8+YAb54ONtgmpdF8tl9bFq3mVOZuipKHTuGzl7EmJtfMnneLgrV9TkN+wdzRmWz/KX5HLy9DQOP19D9M+T10KpunG27v8rsl3tgk7aDz/65lmjN3XVus/DpTI/nPSg8cIg/fkpFo+5vKS3b02eKN9Kh/ezbnIZcXh3hgVR1D00yxcLKCktLWxw9A3lhuB+aE2HsS1GfV8k5R/l+0f9YrCxLVv7AiaL2DH9jIv7mJflSch3C1FnP4FN4nNDVK1jzSzQWAS/xzuTe2Glb+R2mmCh7lrxvhW592uXbCPUdWwnHfsMJsr3FLfWxTuYh1i5eqK7nB6JvymRFrLuz3pCNR8lXqxq+f4ZpMWwKrwxwIWX3epaHLGLZmt+42DiQcdOex9es+uuzCHiZWc/7YXIqlPUrlvLVpt2kNR/K1NefwKUG+1fbx1tWua+HorrbNbd3wL6ROVYOTtiYqYXlkF3aEjCpDY1z00lNKcKknDwlWznT5fl22CadJnKrSGbGpsqEJtn3Y+ZnX7DksyV88vfX8c3dysKQcDLLNoRb6ZzTDU0jiTy0na+3HiPfyg33purzCo/g/nhpDrN6/mq2HzjI/m1fsXDDSRp1G0gvJ7WSjimmppB7+UTx+pQlJu122imfbNKWJ4e048LxKG6qZVpSwVXOquuIiIglswjy087eWW9kbEmjNnz/DKOJD2fd0sUs3xTO4cgIDu/byjLlzYt1Sx4p6dAaTHNyFbNnvMu8db9x+MRJTihxXrXjDBZeXehorVaqhto+Xn0VvR5a1d1uRthcZr37Du+8vZjDeZUkIBu4GZNCeq49Xs/0oc+zLTDTS5CybIn7c4G0tLjCidUx3ChS1tXFn0H/7kfrpveewIX6V2VCk3MiWPvJx8z9ZA4h32wj0WUk097oi8NdZ1ITtSdnibWdO0EBXnDhMEcvq08rXF2U7JaaTLJpcT3tokm+RJbkjLOrWknHRHd2LSoqVB9XzT54BL0sfufng9lUchKvlOH7Z5irUbvYefgCBRbF67N1ac+ggFbcSorkRJkeLpLZnfhpFytzJaOXUaTsR48Jf2P+spV8rjvJfMGiid2QJFtsG6uVlP7mrQLlHzMz5bRQuWodrwH7p6+y16O6cZakInLTtNfG1IIKSAnniFx5kEPzf+OP3/Ox8m1NcyXJacmyROPHe9C53S3Or4sg+VpxYrRxs8fc9Kayft1D4QFX9ZBTc42Lp6KIjo4iMnwDi5aEkd9tAmP8SzdoyXEAb6tvssULP+JF7zTCNu0kUS/vmSrdLslzFB+p9XTLe0/grO2R6bd65c1jquyZpsCAhKZNrFIrnhjsw+UdP3K8kusrVTF4/6qlOSP+sVS3rk8//ivDmiWyfcN2EsocmmTbhzf1t/uyf6kXR5ZN6PTsDJ7xtSBq42Lm604yyrIlGqXTeYck5RN/PgW5dW+Gd22GrVVxwmhkdndcqnO8Ve3fHQa8HvcnziW0CTDjQpbSuvXX50Sr3g4UnjhN3CXl5GtjoVuaNFMyXnoO10UHzShUndDK0MTGcbHQmmbupccGcvYR1tx+ky1YzA8x9gya/jbDmqsVFIWFhchJOwi5XU9d5s1dSGi8WknLrjE2UiE3c3PVgkoUFWHZawTBjSP5+Te97mANGLx/1ZLK3pVzdOuZv2gFYVeaM3T6uwx3V59WyTeOsV5/u2USFbShW+cm5B3dwPLQw0RFn1JOMspyOZeyKSN+y0p+Pu/IoBlz+HRJccL4fyNaq8+WqM7xVr1/KgNej9qMs2zeGNfenri4lo6ClYMyBi/IJff2Z1I2SpuyhUa+AQz855MMUhffzmbI6dcxoKUJD4BqJzTJ4xHcTAvJTCtzkV6TxQVdT055k534g1/X7yHR1AOvdhZqBUi5qvTrlXaWrfT2dPWU5VRSNpKpjKx35diktYfSr0khObHct0xphU70G9qVtB1biKzs+ooBDN0/Q8iyLW16Pk6/jvakxhevKypyN99/t4+rpi1p7VUSF52iLJJux0+73eSST0GL5XFL2QfJzPzOUFLba2vbpuVdCU3KO8MP/5nJn9/7O/+ZU5wslu6+pD5bolrHW+X+qQx4PaobZ+1xWjs608RSLdBn2wyvkd1o41MST9mkMe6d7CiKTSHtds+rIIUzy/Zz8It9estpUjUyN9NyxIcDRqLqhGbuhJe/P35+3QkaOI4Z04fglnmIPZHaCzV6LJxoq6vnh19AMMNfGICnfIXE8yUt9MKecGJtgnn5rXE81jOQHgNGMuXd95kxqSdN1CGYTUs/xgztjlXaea65qutTFu+mjZS9bUJrfx9c9T45xdmXbg7HCf01US2oOUP2z3D5OPqNYtKUKUwY3Ad/5Rj8gwYx/rm+uBQmEhdbzQxJEsdOpGDRbRxvjnucnj378sTz7zC2g4xGraFPO+zKSbnAudPFCSM27e4LULV7vCoDXo/qbtfxsVnMnTtXWabib1lmbJiZTpZybnXsF4BPrxY082tFx1d708bpGud+vXjnayuS0lvLikklXW9Ju1Kg+/Ap5+o1XR3hwVdlQpNsujJ6+gymTpvGiyN74ZQSzrJ5X3GizNlXsvVlrFJvmrJMmTyeR93S2L1iET8mqBUUcsovhMzfQJxtAMMmTWbSqL40TQnjs09WE6P9xEnhMWAST7S1xMS5N8+r69Muz/g7IFl1ZsS0CQQ66KrqSI0sydi9hUM31IJ7YMj+GUqSCvjj6wVsOFlE52ETeW3aW7w2aQS+jeLYtmQhW5PUigaSJJmYDZ/y9b5UXILH8eLEMQQ5RbPhF70AV1NtHu9thrwe1d1uwfUscm5pyLuWxc0y2Vsig+gVEZxPsaT5E/50G+6NY1EyJz/fT+ylKi6MOdsqHcU8cq/WNHsLDU2DmySlw6SFzGr2050vu+qTW47m3//sxu96X9IUBEG4rdrX0ARBEBqqBpfQblyO4cyFdModBOSlknA2ntTqXn4SBOGhIOblFATBaIghpyAIRkMkNEEQjIZIaIIgGA2R0ARBMBoioQmCYDREQhMEwWiIhCYIgtEQCU0QBKMhEpogCEZDJDRBEIxG9ROaTQs6d2qJRTmz8zwsZBtPOndwxZL7GAMRZxHnOlInca4jlc6crk/Gjk4j32DWlAk85p7Brt0xd93e56HhMoA3Z0/jqYAWFF44RVxmmZtd3gMRZz0iznXjPsa5rhn043Tt7aR9X/47U3pbEvvrWtb/8geJ2XffHlumD2+tfBWvA/N5c/lxtfRukt9rLJ7WC8vru5n3ZsnktWUZur7aor0X29v99e4eqZIzwvjPn78mVt1PWTajiVcvhk14hgHN0/l53v/jh3P3fguQ2oqzdoLo9wc30/1flgvIy84gOWY/P67fTFSGrriUuo6zPtmyC69+NAvfy98we05YqekRG3qctaw8+zN23GC6eDTFWqOd+Hk/m9b9yKnMu99WD1t7rg8GDTkb+Y5nUp8mxG+cw7xvD5b74uvItyhUnirUVPC8ysunHZa5ueQ2bkf7R9TC8hi4vtpyYeeyOxMQ65ZVu0nWyFy/EE+qWkdLkjRci9vD6v/MJTSlBUP/NJpWSnO9V7UZZ/nGcTZqJ1Je/Dlrfj2J7PM006YPp3l5Q6s6jvNt2rkC2o95np62cfy0asddc7029DjLdkG8MuslAmwSCF+/gtVbjnCzzVO8OXMUHqb1H+f6bs/1ocqEJsvW9HosELvUXXy7reQe7eXToNEoL1hhxV1WWXamg7cT14/9zhmNK94d7NVnylP1+mrTjYtRdyYgjjh7C5/HgnC4sJmFn+3lWjnHLRUksPn7/WS7BjPQz1wtrZnajjMF6cTqJn4+zIHQb1iw8SQmHv74uqjPl1K3cb7NxHMkz/dryqVfvib0csVvoIYaZ9vAYLpZK8l4wVJ+2nuIAzu+ZeGq38l3D6ZPW7VSKQ9Pe64vBvTQvPBqbU5m1FES7ppfqCyN8mJBUWVnINsueLsXcT52OxeSJDy9O5Wa3bo0A9Z3H8jmrXh65jT6soclC34goaDi4y6IiuT0TWvaeHuoJTVVy3Eu4+b1HOWviidwvlvdx1mWXRj6/BO4ZexSejbntd0E9ZnyNcQ4uzZ1gtxkkvQmQCs4vY2VK7/nSLpaUMrD1J7rR9UJzbwJdlbayXX0O6kV0VCgnIE0hRWPv806tKOVlERcdBIx8RmYt/XBW33ublWv735o/8xbPNXahMsJ6dg635mSvHxyGplZYNfk7msV1VLLcUYyVWc6t8XRM5AXhvuhORHGvrIztuvUfZwdH5vE0Da5HFj7PecMmRy6AcbZRIkxclGpwZmUn8Sxffs4m1reMT1E7bmeVJ3Q1HkgDekmS1I0X781ib9+p5xxK+Dt402j7DhilDdW3Lk4Cmzb0b6Ck4Eh67sfNOnnOH4ilsJ2w5n8t38ztVfpSZVLu6U0UDA1KT2TfLXVcpwl+37M1M1KvoRP/v46vrlbWRgSftd1Kq26jrNsE8j4pzuhiVzHd8du6sq6vrKEFR8/h0eFvfWGGefqeKjacz0x6EOB2iLLzWjf1gFNfCxxymPN6XMkor2O1qS4QgMRFxrCp/+bw7/+8jfWnrHA79mRdHjAvqck50SwVjcj+RxCvtlGostIpr3RF4d6Pg5ZtqDrM+PxMz3FpjUHyaliqCncO2Noz4YyIKHJtfd5h31n2jWHiwkxyGammN04R3waeHp3ruQ6Wv2RCtMIP3CGQtuWtHJWC+8iKWfe2ohSLcZZS3ONi7qZzqOIDN/AoiVh5HebwBj/+j7zetKlowM5J/ZwtNAeezs73WJlVlVia6BxfoDUbXuuH1UntLxc8pRjs7KuYuxtAPMO7fFUgtV61FyWLf9KWT5gkLOEedv2tFPr1Bftd5Pa9h7Mox2bqiXFNAX5FGGBeYUf+tgqsVHCdDNXfVxDtRjn8mhi47hYaE0z98qGG3WncY8pLFi4+M4yuYeN+kxFGl6ci2RlbCaZlPpoQbZsiV//fnRwqd+EUO/tuZ5UndDkS1xOgWYebe755yHt2rfFPO84a//1Af9Sl482nkRj413hdbS6U4RH3/FMGN0TR/U4tf+09GiJeWEqKRVdQ27ihYcyYk65ckktqKFajHN5JI9HcDMtJDNN7yO5epFI2LJPmD9/Tqnlh6jia2kVaoBxTklLB2s3WuhdPzdvP4QXJ46iW71fRann9lxPqkxoknSRyGMpmHUcwONuVQ0LKibL7vi0tUcTc4Q9cXEkxMfrlnN7jpEgu+Ld0VGtWX2y3IpnP/maFXOeo1UNG6kk5XJ49xFyPYczc8rT9O0ZxIBR05kyyJ2MQ7s4Ws41ZFmWaD2oP23kOI4eLucr+NVQW3G+w9wJL39//Py6EzRwHDOmD8Et8xB7Imv+HajaiXMeV85EEXWy9HLxmtLbqUBDjXPO4f0cv+nFU29N5sk+PQl6bCzTX+hJo6Td7I9VK9WAMbTn+mLQhwLxod8RcaMVT019kS5NatgI7Dvi3UwmPvoYt/QvBF87xukk8PDuWPPraBaP0ELJh/kJsSSoRTWRdWAZ877ZzzX3/ox76SVG9nElZddnStnRu37np/25iGuvybw2uBlXw78nzJBvAVShVuKskmy6Mnr6DKZOm8aLI3vhlBLOsnlfcSLvHtZbS3GujoYcZ+naPpbP+5ojeW147LmXeWFED2zjt7Lof5u4UFT/ca7v9lwfDJ5o2LzVUN56cwztza9yMmwVSzdFNZgf88ptJzDvvUGkrp/Ox79lq6X3j2zXlXGvTeBRHyeyj6xiwdJdpBTWTixEnEuIOD/4ca5rBvXQtAoStjF39od8uTsR62bNsFDLGwKbls1x4CrxMdfUkvvMxg1Xkzh+/fwffBBSuy++iLMeEWe15D67j3Guawb30Boyn4kLeTvoDCFvLCGyyp+zCDUl4lw3RJxrzigSmiAIgpbBQ05BEISGTiQ0QRCMhkhogiAYDZHQBEEwGiKhCYJgNERCEwTBaIiEJgiC0RAJTRAEoyESmiAIRkMkNEEQjIZIaIIgGI1Kf8spy+Y07zmGZ4YF0MrZFnKuknBkK+s2HCLFkKnH7rNWz87h/cHNdP+X5QLysjNIjtnPj+s3E/Vg3p9OEIR7YGrfxOED9f93seryIn+bGkyjczvZFrqH6AwbOg8cSbBTPHuPpqCp5/tHOXR6nGC3OH5Yup6df0Ry+koRnr2G8njnIiLDz3C9gdzfShCEulHpkLNj7544pu5kWchGwg8dYs/mz1jyaxKOQf3p3FCm7StIJzYigsjIwxwI/YYFG09i4uGPr4v6vCAID41Kh5wOnp1owSWiEpTxm9rbkXtOZ/lkZ378v/f5KVVCdhnOh/8dTcsKekPymVVM/e9vuruBau+wbd9hGM+NDqZdcwcs8jK5GLWd7779jYQb1e9NaYecs3tEM2fGl5y9vX3/11kytQWhf5nN1quihyYID5NKe2iZ56M4mZCJmaUVlpaWusXKTPsnxXP36WQeYu3ihSxe9D9l+YHomzJZEevUx/8jZONR8tWqktuTTJ85hnYFxwldvYJ1YVGY+T7Pn197FPuazicgmWJhpd0/Wxw9A3lhuB+aE2HsS1GfFwThoVHlDR5l2ZsX5v+NAY4lvR1ZvsDmcnpAstyJV0LewWvfP3lvfbxaWsJj7Mf8vd8FQmaGEFlQ/LfW/d9mwUQbNs/6gNDM6vWo9D8U0JJlDdfObiJk/hbi1PULgvDwMOBrG4ls/3wOcz/5uHjZEk2R+kx1uTo7QXoySbfUAsWNi5e4RlOaluSlapFzIlir27c5hHyzjUSXkUx7oy8ONe3xCYLwwKoyoWnnUUw5d4ro6OLlVHKO+kz1mZqaQlERpWZg1OUdU0zNdI+qT3ONi6eilH2LIjJ8A4uWhJHfbQJj/BvKpxaCINSVShOaR9Bwnurpialeb0cyMUVSslBNOkCFhUoqMzFR0pce3chQg0aje3TPNLFxXCy0ppm70hsUBOGhUmlCa9JxCCPH9qO1moG0SayVRwskTSop6cVl1ZFyNQ2cmuOuN2eYTcsW2JNGarJacI8kj0dwMy0kMy1TLREE4WFR6Rdr06/bETjwUfw9LSg0sadVwCjGDWpL3qH1fBtxpZwv1rrg92RvHBN3syPq7oRyLd2cTgMHEdjOmiLZFreOj/Ls8J5Ynd7EN+EXyK/gqx8V0X2xtlURKSn5NHZrgWfHPowZP5g2+b/z3Zo/GsSvGQRBqDuVJrTC9DNEJZnh4RtEr9498XGDpAPrWL7+MFnlTnVfeUKTc2I5GVuAWydlfX170dXDjqwTm1jxzc4aJR9tQuvn40WHHj0JCAygSxtn5EsHWP/FGiIya/rRhSAIDyoxL6cgCEbDgK9tCIIgPBhEQhMEwWiIhCYIgtEQCU0QBKMhEpogCEZDJDRBEIyGSGiCIBgNkdAEQTAaIqEJgmA0REITBMFoiIQmCILREAlNEASjIRKaIAhGQyQ0QRCMhkhogiAYjUrvh6Y/TZwsF5CXnUFyzH5+XL+ZqAxdsSA0GLKJJS6D/ejS3wVLk2uc+XgncWl33zjU7BFP2g1uTbNHbGlkUsjNS8nE/XicxEvipqAPuip7aPKN42zUThi8+HPW/HoS2edppk0fTnMxTZzQgEgu7nSePpDAfo3JSy2Aghxy0tQn9Zi26UTQG11pZpZOwtZIjv+cQI7DI3Se3J1mVqJNP+iqHnIWpBMbEUFk5GEOhH7Dgo0nMfHwx9dFfV4Q6pksW9NmQndamCZz/NMdxF5WmnVGDtfL5CdZbkybUW2wij/O/s+OEf9HEpcORHN4/XnyrN1o3l5cgXnQVTnknN0jmjkzvuTs7QlM/F9nydQWhOrNnO713Dz+OshZ93+tooIbZF0+w97vv+THqGy1VNugwN57CM+MHYCPuyOWmgwSIraxbv0ukvJLhgay3IVXl8yil3Xp4YJ8Yy8Lpn5BlLov2u2+1+0IH767lgtKmWzmw4sf/4Vgh8Q7M7vLLsP58L+jaVnBBCzymVVM/e9v5Gn/3sD9M5Rs4kqPZybyVGBrXOyskG5dJyPpFLs2rubXMyXzm+qOI+gU86avIFrdT7nHNJa/5soWvTjLsgWtHhvPmAG+eDjbYJqXRfLZfWxat5lT6hQOsmzH0NmLGHPzSybP20Whuj6nYf9gzqhslr80n4O3t2Hg8Rq6f4a8HlrVjbNt91eZ/XIPbNJ28Nk/1xJdZv4JWbbH/XErMnZdJldjhdeMIXhnHSH0q4tKCy+pK7u2J/htL7K/+onjp9RCheyilL/TnpvfbebIYbVQeCBVfUqSTLGwssLS0hZHz0BeGO6H5kQY+1LU51VyzlG+V4ami5VlycofOFHUnuFvTMTfvCRfSq5DmDrrGXwKjxO6egVrfonGIuAl3pncG7tSQ1hT7fSdJO9boVufdvk2oupp6Rz7DSfI9hZ6E7ND5iHWLl6orucHom/KZEWsu7PekI1HyVerGr5/hmkxbAqvDHAhZfd6locsYtma37jYOJBx057H16z667MIeJlZz/thciqU9SuW8tWm3aQ1H8rU15/ApQb7V9vHW1a5r4eiuts1t3fAvpE5Vg5O2JQzIbUkXeNS2BVuFmqTlx02TeFmmnIi1UtmOnaNsFL/e5usbM+msyuNyeHaxXs/ZqF+VZnQJPt+zPzsC5Z8toRP/v46vrlbWRgSTmbZxnIrnXO6oWkkkYe28/XWY+RbueGuNK7bPIL746U5zOr5q9l+4CD7t33Fwg0nadRtIL1KzQtsinaS9dzLJ4rXpywxabfTTvlkk7Y8OaQdF45HcVMt05IKrnJWXUdERCzayaDy087eWW9kbBqyeiyG759hNPHhrFu6mOWbwjkcGcHhfVtZprx5sW7JIyUdWoNpTq5i9ox3mbfuNw6fOMkJJc6rdpzBwqsLHa3VStVQ28err6LXQ6u6280Im8usd9/hnbcXczivTLsry74xtpYyOVevqwV6LmWSWWCG2+NdcGthjYVDY1wfDSTwcQeK4mK5eFmtJzywqkxock4Eaz/5mLmfzCHkm20kuoxk2ht9cbjrTGqi9uQssbZzJyjACy4c5qheI3F1UbJbajLJpsX1tIsm+RJZkjPOrmolHRNMlHZbVFSoPq6affAIeln8zs8HsynnJG4Qw/fPMFejdrHz8AUKLIrXZ6sMbQYFtOJWUiQnyvRwkczuxE+7WJmXml9ep0jZjx4T/sb8ZSv5XHeS+YJFE7spHRFbbBurlZT+5q0C5R8zs9Iz1JejWsdrwP7pq+z1qG6cJamI3LSrZOapBZVxVWJBHjdSyvnE8kYip35IJK9pa/xnDubxd4Pp+ngLbMji3KbzussOwoOt6iGn5hoXT0URHR1FZPgGFi0JI7/bBMb4l27QkuMA3lbfZIsXfsSL3mmEbdpJol7eM1W6XZLnKD5S6+mW957AWdsj02/1ypvHVNkzTYEBCU2bWKVWPDHYh8s7fuT4PUwubPD+VUtzRvxjqW5dn378V4Y1S2T7hu0klDk0ybYPb+pv92X/Ui+OLJvQ6dkZPONrQdTGxczXnWSUZUs0+m9dScon/nwKcuveDO/aDFur4oTRyOzuuFTneKvavzsMeD3uT5yLWbg2xly+zvWyJwyFNl/lHolk179+Yc+icA5sSUW2KCJzRyRxV8Rw0xhUndDK0MTGcbHQmmbupccGcvYR1tx+ky1YzA8x9gya/jbDmqsVFIWFhchJOwi5XU9d5s1dSGi8WknLrjE2UiE3c3PVgkoUFWHZawTBjSP5+bd7GzMYvH/VksrelXN065m/aAVhV5ozdPq7DHdXn1bJN46xXn+7ZRIVtKFb5ybkHd3A8tDDREWfUk4yynI5l7IpI37LSn4+78igGXP4dElxwvh/I1qrz5aozvFWvX8qA16P+xPnYo2dbSH7Bjcq6c1J+XlcS7Om1eDmmCWc5tj2a8XZTnjgVTuhSR6P4GZaSGZamYv0miwu6HpyypvsxB/8un4PiaYeeLWzUCtAytU0sFbam9Lb09VTllNJ2UimMrLelWOT1h5KvyaF5MRy3zKlFTrRb2hX0nZsIbKq6ytVMHT/DCHLtrTp+Tj9OtqTGl+8rqjI3Xz/3T6umraktVdJXHSKski6HT/tdpNLPgUtlsctZR8kM/M7Q0ltr61tm5Z3JTQp7ww//Gcmf37v7/xnTnGyWLr7kvpsiWodb5X7pzLg9ahunLXHae3oTBNLtaAC2nq2zkql9GzKuYJ2h/bTYvdx3ZR2fJWodTHcfUoQHlRVJzRzJ7z8/fHz607QwHHMmD4Et8xD7InUXqjRY+FEW109P/wCghn+wgA85Sskni9poRf2hBNrE8zLb43jsZ6B9Bgwkinvvs+MST1pog7BbFr6MWZod6zSznPNVV2fsng3baTsbRNa+/vgqvfJKc6+dHM4TuiviWpBzRmyf4bLx9FvFJOmTGHC4D74K8fgHzSI8c/1xaUwkbjYamZIkjh2IgWLbuN4c9zj9OzZlyeef4exHWQ0ag192utOOSkXOHe6OGHEpt3dZand41UZ8HpUd7uOj81i7ty5yjIVf8vSQ0PZ1Aanbi1wU5bmvm1o6qrkVNlK2Q13pcwZa/22omoU6EvHDnB5UwRJmSKZGZMqE5pk05XR02cwddo0XhzZC6eUcJbN+4oTZc6+kq0vY5V605RlyuTxPOqWxu4Vi/gxQa2gkFN+IWT+BuJsAxg2aTKTRvWlaUoYn32ympii4vV5DJjEE20tMXHuzfPq+rTLM/4OSFadGTFtAoEOuqo6UiNLMnZv4dANteAeGLJ/hpKkAv74egEbThbRedhEXpv2Fq9NGoFvozi2LVnI1iS1ooEkSSZmw6d8vS8Vl+BxvDhxDEFO0Wz4RS/A1VSbx3ubIa9HdbdbcD2LnFsa8q5lcbNs9m7Riq4TAvB/PlBZOtHcXsLMq53usd9zbXAok8/kJh50G+5G4dGjnIww5FMG4UFS6Rdr60OHSQuZ1eynO1921Se3HM2//9mN3/W+pCkIgnBbta+hCYIgNFQNLqHduBzDmQvplHsJJy+VhLPxpFb38pMgCA+FBjfkFARBqCkx5BQEwWiIhCYIgtEQCU0QBKMhEpogCEZDJDRBEIyGSGiCIBgNkdAEQTAaIqEJgmA0REITBMFoVD+h2bSgc6eWWJQzmcXDQrbxpHMHVyy5jzEQcRZxriN1Euc6YmrfxOED9f+VkrGj08g3mDVlAo+5Z7Brd8zDew92lwG8OXsaTwW0oPDCKeIyy9wb7h6IOOsRca4b9zHOdc2ghKa9+6rvy+8zfaAzl8K+JGRNOCnl3VmUPry18l9McE4gNLKcm7qrJL/XCPn3m4we4EhsaCSpFTQkQ9dXW7Qn6SYdhvHi66/w/HPjGDagN52by1yKiSerQG8fs88ReSoN646P8tQQf8zO7ud0Rk3viFiituKsnU91/qwXGDHyaYaPGMbgR/vi29qGzLgzXC07BZOiruOsJZs44v/c//G3mS8xekQ7rv+6j/Nl5x9o4HHWsvLsz/jJr/HC+GcZOThYF+f02LOklnOrtYetPdcHg4acjXzHM6lPE+I3zmHetwdJzK7g1tjyLQqVpwo1ld8628unHZa5ueQ2bkf7R9TC8hi4vtpi4vk0M/88irb5R/l51Uq+3RWHdcBEZr0+oNQsV5Kk4VrcHlb/Zy6hKS0Y+qfRtFKa672qzTjLN46zUTvv6OLPWfPrSWSfp5k2fTjNyxta1XGcZTsfRr37AVMGOHAp4apaereGHmfZLohXZr1EgE0C4etXsHrLEW62eYo3Z47Cw7T+41zf7bk+VJnQtNPs93osELvUXXy77eKdmbjLp0GjUV6wwoq7rLLsTAdvJ64f+50zGle8O9irz5Sn6vXVps4DB9Iyew9fzF9L2IGD7PtpGQs2n6ZRpwH0KW96tYIENn+/n2zXYAb6maulNVPbcaYgnVjdPKmHORD6DQs2nsTEwx9fF/X5Uuo2zh1Gvs7QZpf5ecH7LDqYppZWrKHG2TYwmG7Wcfy0YCk/7T3EgR3fsnDV7+S7B9OnrVqplIenPdcXA3poXni1Nicz6igJVU4moVFeLCiq7Axk2wVv9yLOx27nQpKEp3cnzMrrNegYsL5aIsvm5MbvJnRTOOeURndbVlIyOTjiWG4iUPJGVCSnb1rTxttDLampWo5zGTev5yh/VTzf6d3qLs5aN85tY+E//sOmU9kG9wMaYpxdmzpBbjJJevMFFZzexsqV33MkXS0o5WFqz/Wj6oRm3gQ7K8hMT1ULKqOhQAmeprDiOzCadWhHKymJuOgkYuIzMG/rg7f63N2qXl9t0c4BELvrOzbsO39nJnWtpq08sJNTuJKsFpQlp5GZBXZN9CY6qIlajjOSqToxsC2OnoG8MNwPzYkw9pV76abu4qyVePBXoq6pDwzVAONsosQYuahUUpbykzi2bx9nU8tLlg9Re64nVSc0ddo0Q7rJkhTN129N4q/fnVdL7ubt402j7DhilDdW3Lk4Cmzb0b6Ck4Eh67ufZLtAnh3kRe7xnewv94yrdUtpoGBqUvlM4lWq5ThL9v2YqZvEdwmf/P11fHO3sjAknMxyhlj1HWfDNMw4V8dD1Z7riUEfCtQWWW5G+7YOaOJjiVMea06fIxHtdbQmxRUaENnMgxHT/4SvHMnaVXvJqfRaS8Mj50SwVjeB7xxCvtlGostIpr3Rt9TFYOHh8aC3Z0MZkNDk2vu8w74z7ZrDxYQYJcCmmN04R3waeHp3ruQ6Wt2TTZx5dNoshjdPZsuiJRyqdO5GSTnz1kaUajHOWpprXNRNDBxFZPgGFi0JI7/bBMb4P5hn3gYb5wdA/bTn+lF1QsvLJU85NivrxmpBzZl3aI+nEqzWo+aybPlXyvIBg5wlzNu2p51ap77Jsh3dX3mX8R2usz1kHlviqxqa2CqxUcJ0M1d9XEO1GOfyaGLjuFhoTTN3J7XkQdPw4lwkK2MzyaTURwuyZUv8+vejg0vDSAj11p7rSdUJTb7E5RRo5tHmnn8e0q59W8zzjrP2Xx/wL3X5aONJNDbeFV5Hq0uybEnH597h1QCZQ5/P4dtoA2YvbuKFhzJiTrlySS2ooVqMc3kkj0dwMy0kM03vI7kHSQOMc0paOli70ULv+rl5+yG8OHEU3RrAVZR6bc/1pMqEJkkXiTyWglnHATzuVllXtXKy7I5PW3s0MUfYExdHQny8bjm35xgJsiveHR3VmtUny6149pOvWTHnOVrdQyNtNmgmUwY1J+NIGMdog5+f353F29VMrVVCliVaD+pPGzmOo4cz1NKaqa0432HuhJe/v7Lv3QkaOI4Z04fglnmIPZFVXwyvSG3F2dbTj8AePXSLX0ttT6kxj3TvqXvc3evudtBQ45xzeD/Hb3rx1FuTebJPT4IeG8v0F3rSKGk3+2PVSjVgDO25vhj006fMxEzc+wwmuGsTEo8eJ6UmM+jbB/H0mE5khH/Jnni9j63zrtPUfxDdrS/yy6ELFNXkYqVFV4aM9cUu+hfWHFbOLDW84Nl+0ER6uzfC1r2L8ubSvsFKFrdru9kbU9INl2UzXHu9yvSx7ckJX8aKg6k123c9tRJnhUOnx+nn40UHZb8DAgPo0sZZ6ZgcYP0Xa4jIvIfvQNVSnL1G/IU3xwTTvXsgvh72ymrs8fQL1D3uZhXHT9p1qxpynKX8RE6ezsahXQBBfXrj792UW7FhfL18M+fuZcRmJO25Phg8L6d5q6G89eYY2ptf5WTYKpZuimowP+aV205g3nuDSF0/nY9/y1ZL7x/ZrivjXpvAoz5OZB9ZxYKlu0gprJ1YiDiXEHF+8ONc1wz+2kZBwjbmzv6QL3cnYt2sGRZqeUNg07I5DlwlPqa639asIRs3XE3i+PXzf/BBSO2++CLOekSc1ZL77D7Gua4ZxczpPhMX8nbQGULeWEJklT9nEWpKxLluiDjXnFEkNEEQBC2Dh5yCIAgNnUhogiAYDZHQBEEwGiKhCYJgNERCEwTBaIiEJgiC0RAJTRAEoyESmiAIRkMkNEEQjIZIaIIgGA2R0ARBMBoioQmCYDQq/XG6drLS5j3H8MywAFo520LOVRKObGXdhkOkaB7euwC0enYO7w9upvu/LBeQl51Bcsx+fly/magH80afgmAUKr1jrVWXF/nb1GAandvJttA9RGfY0HngSIKd4tl7NAXNA3hHy9qgvSNssFscPyxdz84/Ijl9pQjPXkN5vHMRkeFnuP6QxkUQ6lulQ86OvXvimLqTZSEbCT90iD2bP2PJr0k4BvWn84M6G1ptKUgnNiKCyMjDHAj9hgUbT2Li4Y9vBVPsC4Jw/1U65HTw7EQLLhGVoIyj1F6H3HM6yyc78+P/vc9PqRKyy3A+/O9oWlbQK5HPrGLqf3/T3d5YO9+DfYdhPDc6mHbNHbDIy+Ri1Ha++/Y3Em5Uv1fj9dw83gs6xbzpK4i+vX89prH8NVe2/GU2W6+qZdrteg/hmbED8HF3xFKTQULENtat30VSfvW3qx1yzu4RzZwZX3L29nH7v86SqS0I1duuIAh1q9IeWub5KE4mZGJmaYWlpaVusTLT/knxZKQ6mYdYu3ghixf9T1l+IPqmTFbEOvXx/wjZeJR8tark9iTTZ46hXcFxQlevYF1YFGa+z/Pn1x7F/h5mt6mK5DqEqbOewaeweLtrfonGIuAl3pncG7uablcyxcJKGxdbHD0DeWG4H5oTYexLUZ8XBKHOGfAppzfPfrSUJZ99Uby87F/qj6SCq5yNjFSGXpFERMSinVQoP+2s7rFuiU1DVrOfR99gWt/6g9XzV7P9wCH2byseqll06kevms9iVyWP4P54aQ6r2z2obPcrFm44SaNuA+lVw3l3Jft+zNTFZAmf/P11fHO3sjAknMw7mV4QhLpmQEJLZPvnc5j7ycfFy5ZoajoRmquzkj3Sk0nSm8XuxsVLXKMpTYs/NKw+yUztKak9SPO7L+65ujSF1GSSTUvqaZIvkSU54+yqVqomOSeCtbqYzCHkm20kuoxk2ht9cbiPPU1BECpXZUKTpDxSzp0iOrp4OZWcoz5TfaamSrIpKqJQfayje/+bYnr3vKcGkWz78Obt3mM5PUgt7XYlz1F8pF/vvSdwvoftornGxVNRSkyiiAzfwKIlYeR3m8AY/4f90xJBqD+VJjSPoOE81dMTU71eh2SiJAclC9WkI1JYqKQyExMljejRjdA0aDS6R9Um3zjG+tu9xwp6kNrtykk7CNGvpyzz5i4kNF6tdI80sXFcLLSmmXsNx7CCINyzShNak45DGDm2H63VDKRNYq08WiBpUklJLy6rjpSraeDUHHe9SRBtWrbAnjTtiLBmirJI0vWUKu5B6rZrDdlKb+pOvaRsJFMlMesNf++F5PEIbqaFZKZlqiWCINS1ShPaqd17SWkSzMvTx/JoUBADRr3J5AGupB/aw8lS40bDXNi7mzjzAMbPHM/AXj3pPeQFZozqRP7xcA5mqZXugwt7wom1UY7jrXE81jOQHgNGMuXd95kxqSdNanAcOuZOePn74+fXnaCB45gxfQhumYfYE1mgVhAEoa5V+kuBwvQzRCWZ4eEbRK/ePfFxg6QD61i+/jBZReV9mueC35O9cUzczY6ou3sqck4sJ2MLcOukrK9vL7p62JF1YhMrvtlZo59SOXYeTN+WqRwMPUrq7U8X3QMZ3t2Ws2E7iVG/26bd7olzBTT37U3v4D74t3el6MJe1i5bT1QNLglqfynQz8eLDj16EhAYQJc2zsiXDrD+izVEaD/mFQShXoiJhgVBMBpVfsopCILwoBAJTRAEoyESmiAIRkMkNEEQjIZIaIIgGA2R0ARBMBoioQmCYDREQhMEwWiIhCYIgtEQCU0QBKMhEpogCEZDJDRBEIyGSGiCIBgNkdAEQTAald4+SDv/5PuDi2cvkeUC8rIzSI7Zz4/rNxOVoSsWhAZDNrHEZbAfXfq7YGlyjTMf7yQurfR99lzHDyPAz1x9VJqcfIZd86LJFTN3PbCq7KHJN46zUTu/5uLPWfPrSWSfp5k2fTjNxexGQgMiubjTefpAAvs1Ji+1AApyyElTn1TJsiW2Tc0ojI/h8JcHS5YNF7hRJJN3PpUbal3hwVT1kLMgndiICCIjD3MgtHgeTRMPf3xd1OcFoZ7JsjVtJnSnhWkyxz/dQexlpVln5HD9rnNuYyWhwc3EJFJOXdEtV6JS0LR0wbrgKufCUpFE7+yBVuWQc3aPaObM+JKzt19o/9dZMrUFoX+ZzdarxWVez83jr4Ocdf/XKiq4QdblM+z9/kt+jMpWS7UND+y9h/DM2AH4uDtiqckgIWIb69bvIim/pCHJchdeXTKLXtalG5d8Yy8Lpn5BlLov2u2+1+0IH767lgtKmWzmw4sf/4Vgh0Q2q/snuwznw/+OpmUFDVU+s4qp//2NPO3fG7h/hpJNXOnxzESeCmyNi50V0q3rZCSdYtfG1fx6puTe37rjCDrFvOkriFb3U+4xjeWvubJFL86ybEGrx8YzZoAvHs42mOZlkXx2H5vWbeaUesdzWbZj6OxFjLn5JZPn7aJQXZ/TsH8wZ1Q2y1+az8Hb2zDweA3dP0NeD63qxtm2+6vMfrkHNmk7+Oyfa4kuc7t2WbbH/XErMnZdJldjhdeMIXhnHSH0q4tKCy+pK2OhbNcerqaRnVXc7GXXdvT9c3ukPeHs/SmrVH3hwVN1D00yVSfytcXRM5AXhvuhORHGvhT1eZWcc5TvlaHpYmVZsvIHThS1Z/gbE/E3L244WpLrEKbOegafwuOErl7Bml+isQh4iXcm98au1BDWVDvbHcn7VujWp12+jah6NiXHfsMJsr1FqYmcMg+xdvFCdT0/EH1TJiti3Z31hmw8Sr5a1fD9M0yLYVN4ZYALKbvXszxkEcvW/MbFxoGMm/Y8vmbVX59FwMvMet4Pk1OhrF+xlK827Sat+VCmvv4ELjXYv9o+3rLKfT0U1d2uub0D9o3MsXJwwqaceVQl6RqXwq5ws1CbjOyw0fbC0pQTaZnkJCl7kh2TWpLMZHPch3phf/MSMTtEMjMGVSY0yb4fM3WT8y7hk7+/jm/uVhaGhJNZ9sW/lc453dA0kshD2/l66zHyrdxwVxrXbR7B/fHSHGb1/NVsP3CQ/du+YuGGkzTqNpBepaazNEU7J3Hu5RPF61OWmLTbaad8sklbnhzSjgvHo7iplmlJylDirLqOiIhYtHOY5KedvbPeyNg0ZPVYDN8/w2jiw1m3dDHLN4VzODKCw/u2skx582LdkkdKOrQG05xcxewZ7zJv3W8cPnGSE0qcV+04g4VXFzpaq5WqobaPV19Fr4dWdbebETaXWe++wztvL+ZwXhVJx14ZVlrK5Fy9rhZUzKR1e9p1MCUjPJqUqtYrPBCqTGhyTgRrdRPzziHkm20kuoxk2ht9cbjrTGqi9uQssbZzJyjACy4c5uhl9WmFq4uS3VKTSTYtrqddNMmXyJKccXZVK+mYYKK0r6Iiw+eYsw8eQS+L3/n5YDY1nQzd8P0zzNWoXew8fIECi+L12bq0Z1BAK24lRXKiTA8XyexO/LSLlfndM7AXKfvRY8LfmL9sJZ+rM8AvmthN6VjYYttYraT0N29pZ9IzMys9oXM5qnW8Buyfvspej+rGWZKKyE27SmaeWlAZVyUW5HEjpfLZt7QfELQa2gqrjPOc2Ss+CjAWVQ85Nde4qJvIN4rI8A0sWhJGfrcJjPEv3aAlxwG8rb7JFi/8iBe90wjbtJNEvbxnqnS7JM9RfKTW0y3vPYGztkem3+qVN4+psmeaAgMSmjaxSq14YrAPl3f8yPEaTId3m8H7Vy3NGfGPpbp1ffrxXxnWLJHtG7aTUObQJNs+vKm/3Zf9S704smxCp2dn8IyvBVEbFzP/9gzwZWaKl6R84s+nILfuzfCuzbC1Kk4Yjczujkt1jreq/bvDgNfj/sS5mIVrY8zl61wve8Iow6xLR9p4FnFl+2kydUNVwRhUndDK0MTGcbHQmmbupccGcvYR1tx+ky1YzA8x9gya/jbDmqsVFIWFhchJOwi5XU9d5s1dSGi8WknLrjE2UiE3c3PVgkoUFWHZawTBjSP5+Te97mANGLx/1ZLK3pVzdOuZv2gFYVeaM3T6uwx3V59WyTeOsV5/u2USFbShW+cm5B3dwPLQw0SpM8BHX86l7NsxfstKfj7vyKAZc/h0SXHC+H8jWqvPlqjO8Va9fyoDXo/7E+dijZ1tIfsGNyrpzcnY4TXEHfPkWM4cqaWp84UGodoJTfJ4BDfTQjLTylyk12RxQdeTU95kJ/7g1/V7SDT1wKudhVoBUq6mgbXS3pTenq6espxKykYylZH12pVJaw+lX5NCcmLlwwadQif6De1K2o4tRN7jdRBD988QsmxLm56P06+jPanxxeuKitzN99/t46ppS1p7lcRFpyiLpNvx0243uewMyHncUvZBMjO/M5TU9tratml5V0KT8s7ww39m8uf3/s5/5hQni6W7L6nPlqjW8Va5fyoDXo/qxll7nNaOzjSxVAsqoK1n66xUSs+msitojYI60crlFkm/nOXGXdETHmRVJzRzJ7z8/fHz607QwHHMmD4Et8xD7InUXqjRY+FEW109P/wCghn+wgA85Sskni9poRf2hBNrE8zLb43jsZ6B9Bgwkinvvs+MST1pog7BbFr6MWZod6zSznPNVV2fsng3baTsbRNa+/vgqvfJKc6+dHM4TuiviWpBzRmyf4bLx9FvFJOmTGHC4D74K8fgHzSI8c/1xaUwkbjYamZIkjh2IgWLbuN4c9zj9OzZlyeef4exHWQ0ag192utOOSkXOHe6OGHEpt3dZand41UZ8HpUd7uOj81i7ty5yjIVf8vS125lUxucurXATVma+7ahqauSU2UrZTfclTJnrPXbikI2c6b9QBeIO82ZaANOmMIDpcqEJtl0ZfT0GUydNo0XR/bCKSWcZfO+4kSZs69k68tYpd40ZZkyeTyPuqWxe8UifkxQKyjklF8Imb+BONsAhk2azKRRfWmaEsZnn6wmpqh4fR4DJvFEW0tMnHvzvLo+7fKMvwOSVWdGTJtAoIOuqo7UyJKM3Vs4VAvXdQ3ZP0NJUgF/fL2ADSeL6DxsIq9Ne4vXJo3At1Ec25YsZGuSWtFAkiQTs+FTvt6XikvwOF6cOIYgp2g2/KIX4GqqzeO9zZDXo7rbLbieRc4tDXnXsrhZNnu3aEXXCQH4Px+oLJ1obi9h5tVO99jvuTY4lM5n2A7ohHvjGyT8fJ5b4msaRqfSL9bWhw6TFjKr2U93vuyqT245mn//sxu/631JUxAE4bZqX0MTBEFoqBpcQrtxOYYzF9Ip9xJOXioJZ+NJre7lJ0EQHgoNbsgpCIJQU2LIKQiC0RAJTRAEoyESmiAIRkMkNEEQjIZIaIIgGA2R0ARBMBoioQmCYDREQhMEwWiIhCYIgtEQCU0QBKNR/YRm04LOnVpiUQuzAj2oZBtPOndwxZL7GAMRZxHnOlInca4jpvZNHD5Q/18p7W2LO418g1lTJvCYewa7dsfcdXufh4bLAN6cPY2nAlpQeOEUcZllbnZ5D0Sc9Yg41437GOe6ZlBC095O2vfl95k+0JlLYV8SsiaclPJulUwf3lr5LyY4JxAaWfEsFZLfa4T8+01GD3AkNjSS1AoakqHrqy3ak3STDsN48fVXeP65cQwb0JvOzWUuxcSTVaC3j9nniDyVhnXHR3lqiD9mZ/dzOqOmt3gtUVtx1k4QPX/WC4wY+TTDRwxj8KN98W1tQ2bcGa6WnVNOUddx1pJNHPF/7v/428yXGD2iHdd/3cf5shOqNPA4a1l59mf85Nd4YfyzjBwcrItzeuxZUsuZ0+Bha8/1waAhZyPf8Uzq04T4jXOY9+1BErMruHWxfItC5alCTeW3NvbyaYdlbi65jdvR/hG1sDwGrq+2mHg+zcw/j6Jt/lF+XrWSb3fFYR0wkVmvDyg1bZ8kabgWt4fV/5lLaEoLhv5pNK2U5nqvajPO8o3jbNROpLz4c9b8ehLZ52mmTR9O8/KGVnUcZ9nOh1HvfsCUAQ5cSriqlt6tocdZtgvilVkvEWCTQPj6FazecoSbbZ7izZmj8DCt/zjXd3uuD1UmNFm2ptdjgdil7uLbbRcprLRbrkGjUV6wwoq7rLLsTAdvJ64f+50zGle8O9irz5Sn6vXVps4DB9Iyew9fzF9L2IGD7PtpGQs2n6ZRpwH0KW++yIIENn+/n2zXYAb6maulNVPbcaYgnVjdxM+HORD6DQs2nsTEwx9fF/X5Uuo2zh1Gvs7QZpf5ecH7LDqYppZWrKHG2TYwmG7Wcfy0YCk/7T3EgR3fsnDV7+S7B9OnrVqplIenPdcXA3poXni1Nicz6igJVc6Qo1FeLCiq7Axk2wVv9yLOx27nQpKEp3cnzMrrNegYsL5aIsvm5MbvJnRTOOeURndbVlIyOTjiWG4iUPJGVCSnb1rTxttDLampWo5zGTev5yh/VTyB893qLs5aN85tY+E//sOmU9kG9wMaYpxdmzpBbjJJehOgFZzexsqV33MkXS0o5WFqz/Wj6oRm3gQ7K8hMT1ULKqOhQAmeprDiW8qadWhHKymJuOgkYuIzMG/rg7f63N2qXl9t0U5qErvrOzbsO4+sd9Zu2soDOzmFK8lqQVlyGplZYNdEb+aWmqjlOCOZqjOd2+LoGcgLw/3QnAhjX7mXbuouzlqJB38l6pr6wFANMM4mSoyRi0olZSk/iWP79nE2tbxk+RC153pSdUJT54E0pJssSdF8/dYk/vrdebXkbt4+3jTKjiNGeWPFnYujwLYd7Ss4GRiyvvtJtgvk2UFe5B7fyf5yz7hat5QGCqYmpWeSr7ZajrNk34+ZulnJl/DJ31/HN3crC0PCySxniFXfcTZMw4xzdTxU7bmeGPShQG2R5Wa0b+uAJj6WOOWx5vQ5EtFeR2tSXKEBkc08GDH9T/jKkaxdtZecSq+1NDxyTgRrdTOSzyHkm20kuoxk2ht9S10MFh4eD3p7NpQBCU2uvc877DvTrjlcTIhRAmyK2Y1zxKeBp3fnSq6j1T3ZxJlHp81iePNktixawqHMyl58STnz1kaUajHOWpprXNTNdB5FZPgGFi0JI7/bBMb4P5hn3gYb5wdA/bTn+lF1QsvLJU85NivrxmpBzZl3aI+nEqzWo+aybPlXyvIBg5wlzNu2p51ap77Jsh3dX3mX8R2usz1kHlviqxqa2CqxUcJ0M1d9XEO1GOfyaGLjuFhoTTN3J7XkQdPw4lwkK2MzyaTURwuyZUv8+vejg0vDSAj11p7rSdUJTb7E5RRo5tHmnn8e0q59W8zzjrP2Xx/wL3X5aONJNDbeFV5Hq0uybEnH597h1QCZQ5/P4dtoA6Zjb+KFhzJiTrlySS2ooVqMc3kkj0dwMy0kM03vI7kHSQOMc0paOli70ULv+rl5+yG8OHEU3RrAVZR6bc/1pMqEJkkXiTyWglnHATzuVllXtXKy7I5PW3s0MUfYExdHQny8bjm35xgJsiveHR3VmtUny6149pOvWTHnOVrdQyNtNmgmUwY1J+NIGMdog5+f353F29VMrVVCliVaD+pPGzmOo4cz1NKaqa0432HuhJe/v7Lv3QkaOI4Z04fglnmIPZFVXwyvSG3F2dbTj8AePXSLX0ttT6kxj3TvqXvc3evudtBQ45xzeD/Hb3rx1FuTebJPT4IeG8v0F3rSKGk3+2PVSjVgDO25vhj006fMxEzc+wwmuGsTEo8eJ6Wcn3VUyT6Ip8d0IiP8S/bE631snXedpv6D6G59kV8OXaCoJhcrLboyZKwvdtG/sOawcmap4QXP9oMm0tu9EbbuXZQ3l/YNVrK4XdvN3piSbrgsm+Ha61Wmj21PTvgyVhxMrdm+66mVOCscOj1OPx8vOij7HRAYQJc2zkrH5ADrv1hDROY9fAeqluLsNeIvvDkmmO7dA/H1sFdWY4+nX6DucTerOH7SrlvVkOMs5Sdy8nQ2Du0CCOrTG3/vptyKDePr5Zs5dy8jNiNpz/XB4ImGzVsN5a03x9De/Conw1axdFNUg/kxr9x2AvPeG0Tq+ul8/Fu2Wnr/yHZdGffaBB71cSL7yCoWLN1FSmHtxELEuYSI84Mf57pm8Nc2ChK2MXf2h3y5OxHrZs2wUMsbApuWzXHgKvEx1f22Zg3ZuOFqEsevn/+DD0Jq98UXcdYj4qyW3Gf3Mc51zeAeWkPmM3EhbwedIeSNJURW+XMWoaZEnOuGiHPNGUVCEwRB0DJ4yCkIgtDQiYQmCILREAlNEASjIRKaIAhGQyQ0QRCMhkhogiAYDZHQBEEwGiKhCYJgNERCEwTBaIiEJgiC0RAJTRAEo1Hpbzm1c/s17zmGZ4YF0MrZFnKuknBkK+s2HCKl7LT9D5FWz87h/cHNdP+X5QLysjNIjtnPj+s3E/Vg3hdPEIxCpTd4tOryIn+bGkyjczvZFrqH6AwbOg8cSbBTPHuPpqB5AG8AVxu0N1AMdovjh6Xr2flHJKevFOHZayiPdy4iMvwM1x/SuAhCfat0yNmxd08cU3eyLGQj4YcOsWfzZyz5NQnHoP50flAnD6otBenERkQQGXmYA6HfsGDjSUw8/PGtYEZqQRDuv0qHnA6enWjBJaISlHGU2uuQe05n+WRnfvy/9/kpVUJ2Gc6H/x1Nywp6JfKZVUz972+6u4Fqb49u32EYz40Opl1zByzyMrkYtZ3vvv2NhBvV79V4PTeP94JOMW/6CqJv71+PaSx/zZUtf5nN1qtqmXa73kN4ZuwAfNwdsdRkkBCxjXXrd5GUX/3taoecs3tEM2fGl5y9fdz+r7NkagtC9bYrCELdqrSHlnk+ipMJmZhZWmFpaalbrMy0f1I8d59O5iHWLl7I4kX/U5YfiL4pkxWxTn38P0I2HiVfrSq5Pcn0mWNoV3Cc0NUrWBcWhZnv8/z5tUexv4fJIKoiuQ5h6qxn8Cks3u6aX6KxCHiJdyb3xq6m25VMsbDSxsUWR89AXhjuh+ZEGPtS1OcFQahzBnzK6c2zHy1lyWdfFC8v+5f6I6ngKmcjI5WhVyQREbFo5+DITzure6xbYtOQ1ezn0TeY1rf+YPX81Ww/cIj924qHahad+tGr5pM+VckjuD9emsPqdg8q2/2KhRtO0qjbQHrVcJpKyb4fM3UxWcInf38d39ytLAwJJ/NOphcEoa4ZkNAS2f75HOZ+8nHxsiWams4b5OqsZI/0ZJL0Jn26cfES12hK0+IPDatPMlN7SmoP0vzui3uuLk0hNZlk05J6muRLZEnOOLuqlapJzolgrS4mcwj5ZhuJLiOZ9kZfHO5jT1MQhMpVmdAkKY+Uc6eIji5eTiXnqM9Un6mpkmyKiihUH+vo3v+mmN49TaBBJNs+vHm791hOD1JLu13JcxQf6dd77wmc72G7aK5x8VSUEpMoIsM3sGhJGPndJjDG/2H/tEQQ6k+lCc0jaDhP9fTEVK/XIZkoyUHJQjXpiBQWKqnMxERJI3p0IzQNGo3uUbXJN46x/nbvsYIepHa7ctIOQvTrKcu8uQsJjVcr3SNNbBwXC61p5l7DMawgCPes0oTWpOMQRo7tR2s1A2mTWCuPFkiaVFLSi8uqI+VqGjg1x11vzjCbli2wJ007IqyZoiySdD2linuQuu1aQ7bSm7pTLykbyVRJzHrD33sheTyCm2khmWmZaokgCHWt0oR2avdeUpoE8/L0sTwaFMSAUW8yeYAr6Yf2cLLUuNEwF/buJs48gPEzxzOwV096D3mBGaM6kX88nINZaqX74MKecGJtlON4axyP9Qykx4CRTHn3fWZM6kmTGhyHjrkTXv7++Pl1J2jgOGZMH4Jb5iH2RBaoFQRBqGuV/lKgMP0MUUlmePgG0at3T3zcIOnAOpavP0xWUXmf5rng92RvHBN3syPq7p6KnBPLydgC3Dop6+vbi64edmSd2MSKb3bW6KdUjp0H07dlKgdDj5J6+9NF90CGd7flbNhOYtTvtmm3e+JcAc19e9M7uA/+7V0purCXtcvWE1WDS4LaXwr08/GiQ4+eBAQG0KWNM/KlA6z/Yg0R2o95BUGoF2JeTkEQjEaVn3IKgiA8KERCEwTBaIiEJgiC0RAJTRAEoyESmiAIRkMkNEEQjIZIaIIgGA2R0ARBMBoioQmCYDREQhMEwWiIhCYIgtEQCU0QBKMhEpogCEZDJDRBEIyGSGiCIBiNSu+Hpp1Q9/3BxdMxyXIBedkZJMfs58f1m4nK0BULQoMhm1jiMtiPLv1dsDS5xpmPdxKXVubGob6BPDG+OaZlphuUs+I58K9jYhrCB1yld6zV3pk12C2OH5auZ+cfkZy+UoRnr6E83rmIyPAzXBcvvtBASC7udHq5Fx07mZGTBpaNMjm/9RI3imfhucO6qzetndI5tfYkCUcvcun2EnmF9MwCZUWiTT/Iqh5yFqQTGxFBZORhDoQWTwxs4uGPr4v6vCDUM1m2ps2E7rQwTeb4pzuIvaw064wcrpcz9mjsZAvp6SSdSiE1+mrJkpArkpkRqHLIObtHNHNmfMnZ2y+2/+ssmdqC0L/MZuvV4jKv5+bx10HOuv9rFRXcIOvyGfZ+/yU/RmWrpdqGB/beQ3hm7AB83B2x1GSQELGNdet3kZRf0phkuQuvLplFL+vSDUy+sZcFU78gSt0X7Xbf63aED99dywWlTDbz4cWP/0KwQyKb1f2TXYbz4X9H07KCxiqfWcXU//5GnvbvDdw/Q8kmrvR4ZiJPBbbGxc4K6dZ1MpJOsWvjan49UzKZge44gk4xb/oKotX9lHtMY/lrrmzRi7MsW9DqsfGMGeCLh7MNpnlZJJ/dx6Z1mzmlTuEgy3YMnb2IMTe/ZPK8XRSq63Ma9g/mjMpm+UvzOXh7GwYer6H7Z8jroVXdONt2f5XZL/fAJm0Hn/1zLdFl5p+QZXvcH7ciY9dlcjVWeM0YgnfWEUK/ulgqSclyI9q8+QReqQf5bX2KWioYk6p7aJKpOjO5LY6egbww3A/NiTD2lWkPcs5Rvl/0PxYry5KVP3CiqD3D35iIv3lJvpRchzB11jP4FB4ndPUK1vwSjUXAS7wzuTd22lZ+h6l2+k6S963QrU+7fBtR9fRwjv2GE2R7i1Iz02UeYu3ihep6fiD6pkxWxLo76w3ZeJR8tarh+2eYFsOm8MoAF1J2r2d5yCKWrfmNi40DGTfteXzNqr8+i4CXmfW8HyanQlm/YilfbdpNWvOhTH39CVxqsH+1fbxllft6KKq7XXN7B+wbmWPl4IRNORNDS9I1LoVd4WahNnnZYdMUbqYpJ1K9ZFasMTZOynPXb2HayEQ3jaFgXKpMaJJ9P2bqZhtfwid/fx3f3K0sDAm/++LprXTO6YamkUQe2s7XW4+Rb+WGu9K4bvMI7o+X5jCr569m+4GD7N/2FQs3nKRRt4H0KjU/rynaSdZzL58oXp+yxKTdTjvlk03a8uSQdlw4HsVNtUxLKrjKWXUdERGxaCdlyk87e2e9kbFpyOqxGL5/htHEh7Nu6WKWbwrncGQEh/dtZZny5sW6JY+UdGgNpjm5itkz3mXeut84fOIkJ5Q4r9pxBguvLnS0VitVQ20fr76KXg+t6m43I2wus959h3feXszhvLJJqgz7xthayuRcva4W6LGyxdpGqfJof5749wiGfjSCx/+vFz6dLLXdN7WS8CCrMqHJORGs1c00PoeQb7aR6DKSaW/0xeGuBmCi9uQssbZzJyjACy4c5uhl9WmFq4uS3VKTSTYtrqddNMmXyJKccXZVK+mYYKK026IiwyfNtA8eQS+L3/n5YDblnMQNYvj+GeZq1C52Hr5AgUXx+mxd2jMooBW3kiI5UXbEI5ndiZ92sTIvNb+8TpGyHz0m/I35y1byue4k8wWLJnZTOiK22DZWKyn9zVvaqUHNzErPUF+Oah2vAfunr7LXo7pxlqQictOukpmnFlTGVYkFedxIKWc6wYIrnPlsL/uX7NEth9ZEcbXIidYT/HC3VesID7Sqh5yaa1zUzUweRWT4BhYtCSO/2wTG+Jdu0JLjAN5W32SLF37Ei95phG3aSaJe3jNVul2S5yg+UuvplveewFnbI9Nv9cqbx1TZM02BAQlNm1ilVjwx2IfLO37keA3m97zN4P2rluaM+MdS3bo+/fivDGuWyPYN20koc2iSbR/e1N/uy/6lXhxZNqHTszN4xteCqI2Lma87ySjLlmj037qSlE/8+RTk1r0Z3rUZtlbFCaOR2d1xqc7xVrV/dxjwetyfOBezcG2MuXyd6+VcIpMK87gWn06muqSfiOe4MlSVzRrTWG8kITy4qk5oZWhi47hYaE0z99JjAzn7CGtuv8kWLOaHGHsGTX+bYc3VCorCwkLkpB2E3K6nLvPmLiQ0Xq2kZdcYG6mQm7m5akElioqw7DWC4MaR/PybXnewBgzev2pJZe/KObr1zF+0grArzRk6/V2Gu6tPq+Qbx1ivv90yiQra0K1zE/KObmB56GGiok8pJxlluZxb5osJEL9lJT+fd2TQjDl8uqQ4Yfy/Ea3VZ0tU53ir3j+VAa/H/YlzscbOSlcr+wY3yvTmZNkcaw9HbO3Ugtu0Z06lR5d3H2fuF+pOtROa5PEIbqaFZKaVuUivyeKCrienvMlO/MGv6/eQaOqBVzsLtQKkXE0Da6W9Kb09XT1lOZWUrbs4K+tdOTZp7aH0a1JITiz3LVNaoRP9hnYlbccWIqu6vlIFQ/fPELJsS5uej9Ovoz2p8cXriorczfff7eOqaUtae5XERacoi6Tb8dNuN7nslO553FL2QTIzvzOU1Pba2rZpeVdCk/LO8MN/ZvLn9/7Of+YUJ4uluy+pz5ao1vFWuX8qA16P6sZZe5zWjs40sVQLKqCtZ+usVErP5q4raGbN6DgtGN9ed8bmuiTXonNTpKtXuSoSmlGoOqGZO+Hl74+fX3eCBo5jxvQhuGUeYk+k9kKNHgsn2urq+eEXEMzwFwbgKV8h8XxJC72wJ5xYm2Befmscj/UMpMeAkUx5931mTOpJE3UIZtPSjzFDu2OVdp5rrur6lMW7aSNlb5vQ2t8HV71PTnH2pZvDcUJ/TVQLas6Q/TNcPo5+o5g0ZQoTBvfBXzkG/6BBjH+uLy6FicTFVjNDksSxEylYdBvHm+Mep2fPvjzx/DuM7SCjUWvo0153ykm5wLnTxQkjNu3uC1C1e7wqA16P6m7X8bFZzJ07V1mm4m9Z+tqtbGqDU7cWuClLc982NHVVcqpspeyGu1LmjPXttqKccLOuyNj19KVDH3eadfPA+/lgOvkUcum3OG7c9Ymo8CCqMqFJNl0ZPX0GU6dN48WRvXBKCWfZvK84UebsK9n6MlapN01Zpkwez6NuaexesYgfE9QKCjnlF0LmbyDONoBhkyYzaVRfmqaE8dknq4kpKl6fx4BJPNHWEhPn3jyvrk+7POPvgGTVmRHTJhDooKuqIzWyJGP3Fg7dUAvugSH7ZyhJKuCPrxew4WQRnYdN5LVpb/HapBH4Nopj25KFbE1SKxpIkmRiNnzK1/tScQkex4sTxxDkFM2GX/QCXE21eby3GfJ6VHe7BdezyLmlIe9aFjfLZu8Wreg6IQD/5wOVpRPN7SXMvNrpHvs91wYHNZ9J0nViv/6d+ItmuA3yxXd0B9zss4j9ag/Hj1X+Cbrw4Kj0i7X1ocOkhcxq9tOdL7vqk1uO5t//7Mbvel/SFARBuK3a19AEQRAaqgaX0G5cjuHMhXTKvYSTl0rC2XhSq3v5SRCEh0KDG3IKgiDUlBhyCoJgNERCEwTBaIiEJgiC0RAJTRAEoyESmiAIRkMkNEEQjIZIaIIgGA2R0ARBMBoioQmCYDSqn9BsWtC5U0ssHuJ7sMs2nnTu4Iol9zEGIs4iznWkTuJcRyqdaFifjB2dRr7BrCkTeMw9g127Y+66G8ZDw2UAb86exlMBLSi8cIo47QS1tUTEWY+Ic924j3GuawYlNO3dV31ffp/pA525FPYlIWvCSSnvzqL04a2V/2KCcwKhkRXPeyj5vUbIv99k9ABHYkMjSa2gIRm6vtqiPUk36TCMF19/hQnPjuOpx/rSxV0iOSaWzAK9fcw+R+SpNKw7PspTQ/wxO7uf0xk1vSNiidqKs3Y+1fmzXmDEyKcZPmIYgx/ti29rGzLjznC17BRMChHnmrdnK8/+jJ/8Gi+Mf5aRg4N1cU6PPUtqORO61Gecn39uHMMG9KZzc5lLMfFk1UGc64NBQ85GvuOZ1KcJ8RvnMO/bgyRmV3BrbPkWhcpThZrKb53t5dMOy9xcchu3o/0jamF5DFxfbTHxGMmMP4+mneYkv6xZybqw05gpxz5r2iCc9IYkkqThWtweVv9nLqEpLRj6p9G0UprrvarNOMs3jrNRO+/o4s9Z8+tJZJ+nmTZ9OM3LG1qJOKvPlFFFXGS7IF6Z9RIBNgmEr1/B6i1HuNnmKd6cOQqP8ub8rOs4ez7NzD+Pom3+UX5etZJvd8VhHTCRWa8PKDVr2/2Kc32oMqFpp9nv9Vggdqm7+HbbxTszcZdPg0ajvGCFFXdZZdmZDt5OXD/2O2c0rnh3sFefKU/V66tNPv0f5ZHre1k+9xt+26+dL/JL5q+OQG73GMFlJjXRkgoS2Pz9frJdgxnoZ66W1kxtx5mCdGJ186Qe5kDoNyzYeFJJJP74uqjPlyLiXL7K42IbGEw36zh+WrCUn/Ye4sCOb1m46nfy3YPp01atVErdxrnzwIG0zN7DF/PXEnbgIPt+WsaCzadp1GkAfcqbLrAW41xfDOiheeHV2pzMqKMk3DUdR1ka5cWCosrOQLZd8HYv4nzsdi4kSXh6d8KsvF6DjgHrqyXaCTNcXZpAUjxn9drbjbNxXKYpLm5qQRkFUZGcvmlNG28PtaSmajnOZdy8nqP8VfF8p3cTcS5f5XFxbeoEuckk6c0XVHB6GytXfs+RdLWglLqNc278bkI3hXNOSaK3ZSUlk4MjjuWe2GozzvWj6oRm3gQ7K8hMT1ULKqOhQAmeprDiOzCadWhHKymJuOgkYuIzMG/rg7f63N2qXl/tKZ6tnaJC3Vlbl2K1iVZpgfLt58ojp5GZBXZN9CY6qIlajjOSqToxsC2OnoG8MNwPzYkw9pV76UbEuXyVx8VEiTFyUanBmZSfxLF9+zibWl6yrLs4a+e0iN31HRv2nUfW64U2beWBnZzClWS1oKzainM9qTqhqdOmGdJNlqRovn5rEn/97rxacjdvH28aZccRo7yx4s7FUWDbjvYVnAwMWd/9INv158+freTTKUGUmWyuHLeUBqqd3rGid6KBajnOkn0/Zuom8V3CJ39/Hd/crSwMCSeznCGWiHP5ajsu9RXn22S7QJ4d5EXu8Z3sL7cHqVVLca4nBn0oUFtkuRnt2zqgiY8lTnmsOX2ORLTX0ZQhSENybR8r/vVP/v3NH8rL+2CScyJYq5vAdw4h32wj0WUk097oW+picL0zgjg/KGQzD0ZM/xO+ciRrV+0lp9Jrhw8uAxKaXKpLfU/sO9OuOVxMiFECbIrZjXPEp4Gnd+dKrqPVPe2nPtnJF0i5Yci1DkmpXxtRqsU4a2mucVE3MXAUkeEbWLQkjPxuExjj33DOvEYR5weAbOLMo9NmMbx5MlsWLeFQZmXJrLbiXD+qTmh5ueQpx2ZlXTLjdE2Zd2iPpxKs1qPmsmz5V8ryAYOcJczbtqedWqf+FGov4ygRMcVUP7mamiovsUxRhe85WyU2Sphu5qqPa6gW41weTWwcFwutaebupJbUF+OJc5GsHIhkoux3CdmyJX79+9HBRe/Y6pEs29H9lXcZ3+E620PmsSW+qqF2LcW5nlSd0ORLXE6BZh5t7vnnIe3at8U87zhr//UB/1KXjzaeRGPjXeF1tLqivYiacjUL3FvTTu8Ta5t2bXAjjdSKriE38cJDGTGnXLmkFtRQLca5PJLHI7iZFpKZpveRXD0wpjinpKWDtRst9K6fm7cfwosTR9GtAVxFkWVLOj73Dq8GyBz6fA7fRhswG3dtxbmeVJnQJOkikcdSMOs4gMfdKuuqVk6W3fFpa48m5gh74uJIiI/XLef2HCNBdsW7o6Nas/pkuRXPfvI1K+Y8R6t7aKSnw3dxsXFfXnn7BQb1CqL30BeZ+bw/JnG72V/OBOWyLNF6UH/ayHEcPZyhltZMbcX5DnMnvPz98fPrTtDAccyYPgS3zEPsiaz6YnhFRJxLyzm8n+M3vXjqrck82acnQY+NZfoLPWmUpBxHrFqpBmorzs0GzWTKoOZkHAnjGG2UtuB3Z/F2NVNrlajNONcXg376lJmYiXufwQR3bULi0eOklPOzjirZB/H0mE5khH/Jnni9S8B512nqP4ju1hf55dAFimpysdKiK0PG+mIX/QtrDitnlhpe8JSzznAsrpDmHQPp2ac3fl52XDu5jS9X/MyFW6XXKctmuPZ6lelj25MTvowVB1Nrtu96aiXOCodOj9PPx4sOPXoSEBhAlzbOSsfkAOu/WENEpiHXqyog4lyKlJ/IydPZOLQLIEg5Dn/vptyKDePr5Zs5dy8jtlqKc/tBE+nt3ghb9y4EKm1Bf3G7tpu9MSU7eT/iXB8MnpfTvNVQ3npzDO3Nr3IybBVLN0U1mB/zym0nMO+9QaSun87Hv2WrpfePbNeVca9N4FEfJ7KPrGLB0l2kFNZOLEScS4g4P/hxrmsGf22jIGEbc2d/yJe7E7Fu1syA7w3VHZuWzXHgKvEx19SS+8zGDVeTOH79/B98EFK7L76Isx4RZ7XkPruPca5rRjFzus/EhbwddIaQN5YQWeozJ6E2iTjXDRHnmjOKhCYIgqBl8JBTEAShoRMJTRAEoyESmiAIRkMkNEEQjIZIaIIgGA2R0ARBMBoioQmCYDREQhMEwWiIhCYIgtEQCU0QBKMhEpogCEZDJDRBEIxGpT9O105W2rznGJ4ZFkArZ1vIuUrCka2s23CIFE3DuAuAlWd/xo4bTBePplhrskg+u59N637kVKb4zb0gPGwqvWOtVZcX+dvUYBqd28m20D1EZ9jQeeBIgp3i2Xs0BU093xBPtgvijdmv0qXwBDu2/MLvsbk06zGUof5mnNwTzTVZ3HpFEB4mlQ45O/buiWPqTpaFbCT80CH2bP6MJb8m4RjUn84NYDY028BgulnH8dOCpfy09xAHdnzLwlW/k+8eTJ+2aiVBEB4alQ45HTw70YJLRCVkKDWLeztyz+ksn+zMj//3Pj+lSsguw/nwv6NpWUFvTT6ziqn//U13e2PtfA/2HYbx3Ohg2jV3wCIvk4tR2/nu299IuFH93lTrZ+fwt94xzJ+2jFO396+RO74Bntw8u7eC6fgFQTBWlQ4587KukpKZh7mlFRbmZpiZmWHuHsBQXxtiduwkRpuEbmVy+cJpjv1xiD/+SMa2S3vMT6xn+cYdyuNDHD52lqSMXF1ClNye5O2/jqVl2gFCf9rB0eRCWvcdyeNtsjhwIIH8CpJiRZw6D6Gv+1UOhB4lVf1bqTCbK4mJpOeKZCYIDxsDPuX05tmPlrLksy+Kl5f9S/2RVHCVs5GRRCpLREQs2kmF8tPO6h7rltg0ZDXZePQNpvWtP1g9fzXbDxxi/7ZvWLDxJBad+tGr5rPYCYIg6BiQ0BLZ/vkc5n7ycfGyJZqaToTm6uwE6ckk6c1id+PiJa7RlKbN1AJBEIQaqjKhSVIeKedOER1dvJxKzlGfqT5TU1O0c/0Xqo91dFfwTDG9e95TQRCEaqk0oXkEDeepnp6Y6s3eLJmYIilZqCYTOhcWKqnMxERJX3p0o1ENGo3uUbUUycr6JJNS8+LIli3x69+PDi412EFBEB5olSa0Jh2HMHJsP1qrGUibxFp5tEDSpJKSXlxWHSlX08CpOe56kyDatGyBPWmkJqsF1ZCSpuyEtRstHNQChXn7Ibw4cRTdmqgFgiA8NCr9lDP9uh2BAx/F39OCQhN7WgWMYtygtuQdWs+3EVfK+WKtC35P9sYxcTc7ojLVshLX0s3pNHAQge2sld6VLW4dH+XZ4T2xOr2Jb8IvVPtTzlvpEp7BjxPU2RmTQguatg1i9Jj+NEvfztofTosv1grCQ6bShFaYfoaoJDM8fIPo1bsnPm6QdGAdy9cfJquovGRReUKTc2I5GVuAWydlfX170dXDjqwTm1jxzc4a/ZRKyk/k5OlsHNoFENSnN/7eTbkVG8bXyzdzLletJAjCQ0NMNCwIgtEw4GsbgiAIDwaR0ARBMBoioQmCYDREQhMEwWiIhCYIgtEQCU0QBCMB/x+hBKg7l6UQQgAAAABJRU5ErkJggg==;" parent="1" vertex="1">
          <mxGeometry x="1870.99990234375" y="-27.499975585937506" width="308" height="331" as="geometry" />
        </mxCell>
        <mxCell id="ymRdBgUccURgdEPoGnt--30" value="Это В" style="ellipse;whiteSpace=wrap;html=1;aspect=fixed;" parent="1" vertex="1">
          <mxGeometry x="1623" y="168" width="80" height="80" as="geometry" />
        </mxCell>
        <mxCell id="g1b0QnomjV-qczve3dWU-1" style="edgeStyle=orthogonalEdgeStyle;rounded=0;orthogonalLoop=1;jettySize=auto;html=1;entryX=0.5;entryY=0;entryDx=0;entryDy=0;" parent="1" source="ymRdBgUccURgdEPoGnt--31" target="ymRdBgUccURgdEPoGnt--37" edge="1">
          <mxGeometry relative="1" as="geometry" />
        </mxCell>
        <mxCell id="ymRdBgUccURgdEPoGnt--31" value="Это не B" style="ellipse;whiteSpace=wrap;html=1;" parent="1" vertex="1">
          <mxGeometry x="1623" y="276" width="80" height="80" as="geometry" />
        </mxCell>
        <mxCell id="ymRdBgUccURgdEPoGnt--36" value="" style="endArrow=classic;html=1;rounded=0;exitX=0.5;exitY=1;exitDx=0;exitDy=0;entryX=0.5;entryY=0;entryDx=0;entryDy=0;" parent="1" source="ymRdBgUccURgdEPoGnt--30" target="ymRdBgUccURgdEPoGnt--31" edge="1">
          <mxGeometry width="50" height="50" relative="1" as="geometry">
            <mxPoint x="1751" y="234" as="sourcePoint" />
            <mxPoint x="1801" y="184" as="targetPoint" />
          </mxGeometry>
        </mxCell>
        <mxCell id="ymRdBgUccURgdEPoGnt--37" value="Это не В" style="ellipse;whiteSpace=wrap;html=1;aspect=fixed;" parent="1" vertex="1">
          <mxGeometry x="1623" y="396" width="80" height="80" as="geometry" />
        </mxCell>
        <mxCell id="ymRdBgUccURgdEPoGnt--40" value="Это А" style="ellipse;whiteSpace=wrap;html=1;aspect=fixed;" parent="1" vertex="1">
          <mxGeometry x="1543" y="476" width="80" height="80" as="geometry" />
        </mxCell>
        <mxCell id="ymRdBgUccURgdEPoGnt--45" value="" style="edgeStyle=orthogonalEdgeStyle;rounded=0;orthogonalLoop=1;jettySize=auto;html=1;" parent="1" source="ymRdBgUccURgdEPoGnt--41" target="ymRdBgUccURgdEPoGnt--44" edge="1">
          <mxGeometry relative="1" as="geometry" />
        </mxCell>
        <mxCell id="ymRdBgUccURgdEPoGnt--41" value="Это С" style="ellipse;whiteSpace=wrap;html=1;aspect=fixed;" parent="1" vertex="1">
          <mxGeometry x="1703" y="476" width="80" height="80" as="geometry" />
        </mxCell>
        <mxCell id="ymRdBgUccURgdEPoGnt--42" value="" style="endArrow=classic;html=1;rounded=0;exitX=0;exitY=1;exitDx=0;exitDy=0;entryX=1;entryY=0;entryDx=0;entryDy=0;" parent="1" source="ymRdBgUccURgdEPoGnt--37" target="ymRdBgUccURgdEPoGnt--40" edge="1">
          <mxGeometry width="50" height="50" relative="1" as="geometry">
            <mxPoint x="1669" y="461" as="sourcePoint" />
            <mxPoint x="1719" y="411" as="targetPoint" />
          </mxGeometry>
        </mxCell>
        <mxCell id="ymRdBgUccURgdEPoGnt--43" value="" style="endArrow=classic;html=1;rounded=0;exitX=1;exitY=1;exitDx=0;exitDy=0;" parent="1" source="ymRdBgUccURgdEPoGnt--37" target="ymRdBgUccURgdEPoGnt--41" edge="1">
          <mxGeometry width="50" height="50" relative="1" as="geometry">
            <mxPoint x="1730" y="461" as="sourcePoint" />
            <mxPoint x="1780" y="411" as="targetPoint" />
          </mxGeometry>
        </mxCell>
        <mxCell id="ymRdBgUccURgdEPoGnt--44" value="Это С" style="ellipse;whiteSpace=wrap;html=1;aspect=fixed;" parent="1" vertex="1">
          <mxGeometry x="1703" y="594" width="80" height="80" as="geometry" />
        </mxCell>
      </root>
    </mxGraphModel>
  </diagram>
</mxfile>
